%TF.GenerationSoftware,KiCad,Pcbnew,7.0.5*%
%TF.CreationDate,2023-08-21T09:28:54+09:00*%
%TF.ProjectId,STM32G4 MAZE,53544d33-3247-4342-904d-415a452e6b69,rev?*%
%TF.SameCoordinates,Original*%
%TF.FileFunction,Legend,Bot*%
%TF.FilePolarity,Positive*%
%FSLAX46Y46*%
G04 Gerber Fmt 4.6, Leading zero omitted, Abs format (unit mm)*
G04 Created by KiCad (PCBNEW 7.0.5) date 2023-08-21 09:28:54*
%MOMM*%
%LPD*%
G01*
G04 APERTURE LIST*
%ADD10C,0.200000*%
G04 APERTURE END LIST*
D10*
X75239554Y-118500042D02*
X75287173Y-118547661D01*
X75287173Y-118547661D02*
X75382411Y-118595280D01*
X75382411Y-118595280D02*
X75620506Y-118595280D01*
X75620506Y-118595280D02*
X75715744Y-118547661D01*
X75715744Y-118547661D02*
X75763363Y-118500042D01*
X75763363Y-118500042D02*
X75810982Y-118404804D01*
X75810982Y-118404804D02*
X75810982Y-118309566D01*
X75810982Y-118309566D02*
X75763363Y-118166709D01*
X75763363Y-118166709D02*
X75191935Y-117595280D01*
X75191935Y-117595280D02*
X75810982Y-117595280D01*
X76430030Y-118595280D02*
X76525268Y-118595280D01*
X76525268Y-118595280D02*
X76620506Y-118547661D01*
X76620506Y-118547661D02*
X76668125Y-118500042D01*
X76668125Y-118500042D02*
X76715744Y-118404804D01*
X76715744Y-118404804D02*
X76763363Y-118214328D01*
X76763363Y-118214328D02*
X76763363Y-117976233D01*
X76763363Y-117976233D02*
X76715744Y-117785757D01*
X76715744Y-117785757D02*
X76668125Y-117690519D01*
X76668125Y-117690519D02*
X76620506Y-117642900D01*
X76620506Y-117642900D02*
X76525268Y-117595280D01*
X76525268Y-117595280D02*
X76430030Y-117595280D01*
X76430030Y-117595280D02*
X76334792Y-117642900D01*
X76334792Y-117642900D02*
X76287173Y-117690519D01*
X76287173Y-117690519D02*
X76239554Y-117785757D01*
X76239554Y-117785757D02*
X76191935Y-117976233D01*
X76191935Y-117976233D02*
X76191935Y-118214328D01*
X76191935Y-118214328D02*
X76239554Y-118404804D01*
X76239554Y-118404804D02*
X76287173Y-118500042D01*
X76287173Y-118500042D02*
X76334792Y-118547661D01*
X76334792Y-118547661D02*
X76430030Y-118595280D01*
X77144316Y-118500042D02*
X77191935Y-118547661D01*
X77191935Y-118547661D02*
X77287173Y-118595280D01*
X77287173Y-118595280D02*
X77525268Y-118595280D01*
X77525268Y-118595280D02*
X77620506Y-118547661D01*
X77620506Y-118547661D02*
X77668125Y-118500042D01*
X77668125Y-118500042D02*
X77715744Y-118404804D01*
X77715744Y-118404804D02*
X77715744Y-118309566D01*
X77715744Y-118309566D02*
X77668125Y-118166709D01*
X77668125Y-118166709D02*
X77096697Y-117595280D01*
X77096697Y-117595280D02*
X77715744Y-117595280D01*
X78049078Y-118595280D02*
X78668125Y-118595280D01*
X78668125Y-118595280D02*
X78334792Y-118214328D01*
X78334792Y-118214328D02*
X78477649Y-118214328D01*
X78477649Y-118214328D02*
X78572887Y-118166709D01*
X78572887Y-118166709D02*
X78620506Y-118119090D01*
X78620506Y-118119090D02*
X78668125Y-118023852D01*
X78668125Y-118023852D02*
X78668125Y-117785757D01*
X78668125Y-117785757D02*
X78620506Y-117690519D01*
X78620506Y-117690519D02*
X78572887Y-117642900D01*
X78572887Y-117642900D02*
X78477649Y-117595280D01*
X78477649Y-117595280D02*
X78191935Y-117595280D01*
X78191935Y-117595280D02*
X78096697Y-117642900D01*
X78096697Y-117642900D02*
X78049078Y-117690519D01*
X79096697Y-117690519D02*
X79144316Y-117642900D01*
X79144316Y-117642900D02*
X79096697Y-117595280D01*
X79096697Y-117595280D02*
X79049078Y-117642900D01*
X79049078Y-117642900D02*
X79096697Y-117690519D01*
X79096697Y-117690519D02*
X79096697Y-117595280D01*
X79763363Y-118595280D02*
X79858601Y-118595280D01*
X79858601Y-118595280D02*
X79953839Y-118547661D01*
X79953839Y-118547661D02*
X80001458Y-118500042D01*
X80001458Y-118500042D02*
X80049077Y-118404804D01*
X80049077Y-118404804D02*
X80096696Y-118214328D01*
X80096696Y-118214328D02*
X80096696Y-117976233D01*
X80096696Y-117976233D02*
X80049077Y-117785757D01*
X80049077Y-117785757D02*
X80001458Y-117690519D01*
X80001458Y-117690519D02*
X79953839Y-117642900D01*
X79953839Y-117642900D02*
X79858601Y-117595280D01*
X79858601Y-117595280D02*
X79763363Y-117595280D01*
X79763363Y-117595280D02*
X79668125Y-117642900D01*
X79668125Y-117642900D02*
X79620506Y-117690519D01*
X79620506Y-117690519D02*
X79572887Y-117785757D01*
X79572887Y-117785757D02*
X79525268Y-117976233D01*
X79525268Y-117976233D02*
X79525268Y-118214328D01*
X79525268Y-118214328D02*
X79572887Y-118404804D01*
X79572887Y-118404804D02*
X79620506Y-118500042D01*
X79620506Y-118500042D02*
X79668125Y-118547661D01*
X79668125Y-118547661D02*
X79763363Y-118595280D01*
X80668125Y-118166709D02*
X80572887Y-118214328D01*
X80572887Y-118214328D02*
X80525268Y-118261947D01*
X80525268Y-118261947D02*
X80477649Y-118357185D01*
X80477649Y-118357185D02*
X80477649Y-118404804D01*
X80477649Y-118404804D02*
X80525268Y-118500042D01*
X80525268Y-118500042D02*
X80572887Y-118547661D01*
X80572887Y-118547661D02*
X80668125Y-118595280D01*
X80668125Y-118595280D02*
X80858601Y-118595280D01*
X80858601Y-118595280D02*
X80953839Y-118547661D01*
X80953839Y-118547661D02*
X81001458Y-118500042D01*
X81001458Y-118500042D02*
X81049077Y-118404804D01*
X81049077Y-118404804D02*
X81049077Y-118357185D01*
X81049077Y-118357185D02*
X81001458Y-118261947D01*
X81001458Y-118261947D02*
X80953839Y-118214328D01*
X80953839Y-118214328D02*
X80858601Y-118166709D01*
X80858601Y-118166709D02*
X80668125Y-118166709D01*
X80668125Y-118166709D02*
X80572887Y-118119090D01*
X80572887Y-118119090D02*
X80525268Y-118071471D01*
X80525268Y-118071471D02*
X80477649Y-117976233D01*
X80477649Y-117976233D02*
X80477649Y-117785757D01*
X80477649Y-117785757D02*
X80525268Y-117690519D01*
X80525268Y-117690519D02*
X80572887Y-117642900D01*
X80572887Y-117642900D02*
X80668125Y-117595280D01*
X80668125Y-117595280D02*
X80858601Y-117595280D01*
X80858601Y-117595280D02*
X80953839Y-117642900D01*
X80953839Y-117642900D02*
X81001458Y-117690519D01*
X81001458Y-117690519D02*
X81049077Y-117785757D01*
X81049077Y-117785757D02*
X81049077Y-117976233D01*
X81049077Y-117976233D02*
X81001458Y-118071471D01*
X81001458Y-118071471D02*
X80953839Y-118119090D01*
X80953839Y-118119090D02*
X80858601Y-118166709D01*
X81477649Y-117690519D02*
X81525268Y-117642900D01*
X81525268Y-117642900D02*
X81477649Y-117595280D01*
X81477649Y-117595280D02*
X81430030Y-117642900D01*
X81430030Y-117642900D02*
X81477649Y-117690519D01*
X81477649Y-117690519D02*
X81477649Y-117595280D01*
X81906220Y-118500042D02*
X81953839Y-118547661D01*
X81953839Y-118547661D02*
X82049077Y-118595280D01*
X82049077Y-118595280D02*
X82287172Y-118595280D01*
X82287172Y-118595280D02*
X82382410Y-118547661D01*
X82382410Y-118547661D02*
X82430029Y-118500042D01*
X82430029Y-118500042D02*
X82477648Y-118404804D01*
X82477648Y-118404804D02*
X82477648Y-118309566D01*
X82477648Y-118309566D02*
X82430029Y-118166709D01*
X82430029Y-118166709D02*
X81858601Y-117595280D01*
X81858601Y-117595280D02*
X82477648Y-117595280D01*
X83430029Y-117595280D02*
X82858601Y-117595280D01*
X83144315Y-117595280D02*
X83144315Y-118595280D01*
X83144315Y-118595280D02*
X83049077Y-118452423D01*
X83049077Y-118452423D02*
X82953839Y-118357185D01*
X82953839Y-118357185D02*
X82858601Y-118309566D01*
X103419582Y-109929911D02*
X103486926Y-109862568D01*
X103486926Y-109862568D02*
X103520597Y-109761552D01*
X103520597Y-109761552D02*
X103520597Y-109694209D01*
X103520597Y-109694209D02*
X103486926Y-109593194D01*
X103486926Y-109593194D02*
X103385910Y-109424835D01*
X103385910Y-109424835D02*
X103217552Y-109256476D01*
X103217552Y-109256476D02*
X103049193Y-109155461D01*
X103049193Y-109155461D02*
X102948178Y-109121789D01*
X102948178Y-109121789D02*
X102880834Y-109121789D01*
X102880834Y-109121789D02*
X102779819Y-109155461D01*
X102779819Y-109155461D02*
X102712475Y-109222804D01*
X102712475Y-109222804D02*
X102678804Y-109323820D01*
X102678804Y-109323820D02*
X102678804Y-109391163D01*
X102678804Y-109391163D02*
X102712475Y-109492178D01*
X102712475Y-109492178D02*
X102813491Y-109660537D01*
X102813491Y-109660537D02*
X102981849Y-109828896D01*
X102981849Y-109828896D02*
X103150208Y-109929911D01*
X103150208Y-109929911D02*
X103251223Y-109963583D01*
X103251223Y-109963583D02*
X103318567Y-109963583D01*
X103318567Y-109963583D02*
X103419582Y-109929911D01*
X103318567Y-108751400D02*
X103318567Y-108684056D01*
X103318567Y-108684056D02*
X103251223Y-108684056D01*
X103251223Y-108684056D02*
X103251223Y-108751400D01*
X103251223Y-108751400D02*
X103318567Y-108751400D01*
X103318567Y-108751400D02*
X103251223Y-108684056D01*
X103958330Y-107976950D02*
X103554269Y-108381011D01*
X103756299Y-108178980D02*
X104463406Y-108886087D01*
X104463406Y-108886087D02*
X104295047Y-108852415D01*
X104295047Y-108852415D02*
X104160360Y-108852415D01*
X104160360Y-108852415D02*
X104059345Y-108886087D01*
X105035826Y-107842263D02*
X104564421Y-107370858D01*
X104732780Y-108145309D02*
X104362391Y-107774919D01*
X104362391Y-107774919D02*
X104328719Y-107673904D01*
X104328719Y-107673904D02*
X104362391Y-107572889D01*
X104362391Y-107572889D02*
X104463406Y-107471874D01*
X104463406Y-107471874D02*
X104564421Y-107438202D01*
X104564421Y-107438202D02*
X104631765Y-107438202D01*
X105507230Y-107168828D02*
X105271528Y-107404530D01*
X104901139Y-107034141D02*
X105608246Y-107741247D01*
X105608246Y-107741247D02*
X105944963Y-107404530D01*
X104853178Y-100732102D02*
X104449117Y-101136163D01*
X104651147Y-100934133D02*
X105358254Y-101641239D01*
X105358254Y-101641239D02*
X105189895Y-101607568D01*
X105189895Y-101607568D02*
X105055208Y-101607568D01*
X105055208Y-101607568D02*
X104954193Y-101641239D01*
X105930674Y-100597415D02*
X105459269Y-100126011D01*
X105627628Y-100900461D02*
X105257239Y-100530072D01*
X105257239Y-100530072D02*
X105223567Y-100429056D01*
X105223567Y-100429056D02*
X105257239Y-100328041D01*
X105257239Y-100328041D02*
X105358254Y-100227026D01*
X105358254Y-100227026D02*
X105459269Y-100193354D01*
X105459269Y-100193354D02*
X105526613Y-100193354D01*
X106402078Y-99923980D02*
X106166376Y-100159682D01*
X105795987Y-99789293D02*
X106503093Y-100496400D01*
X106503093Y-100496400D02*
X106839811Y-100159682D01*
X103419582Y-95959911D02*
X103486926Y-95892568D01*
X103486926Y-95892568D02*
X103520597Y-95791552D01*
X103520597Y-95791552D02*
X103520597Y-95724209D01*
X103520597Y-95724209D02*
X103486926Y-95623194D01*
X103486926Y-95623194D02*
X103385910Y-95454835D01*
X103385910Y-95454835D02*
X103217552Y-95286476D01*
X103217552Y-95286476D02*
X103049193Y-95185461D01*
X103049193Y-95185461D02*
X102948178Y-95151789D01*
X102948178Y-95151789D02*
X102880834Y-95151789D01*
X102880834Y-95151789D02*
X102779819Y-95185461D01*
X102779819Y-95185461D02*
X102712475Y-95252804D01*
X102712475Y-95252804D02*
X102678804Y-95353820D01*
X102678804Y-95353820D02*
X102678804Y-95421163D01*
X102678804Y-95421163D02*
X102712475Y-95522178D01*
X102712475Y-95522178D02*
X102813491Y-95690537D01*
X102813491Y-95690537D02*
X102981849Y-95858896D01*
X102981849Y-95858896D02*
X103150208Y-95959911D01*
X103150208Y-95959911D02*
X103251223Y-95993583D01*
X103251223Y-95993583D02*
X103318567Y-95993583D01*
X103318567Y-95993583D02*
X103419582Y-95959911D01*
X103318567Y-94781400D02*
X103318567Y-94714056D01*
X103318567Y-94714056D02*
X103251223Y-94714056D01*
X103251223Y-94714056D02*
X103251223Y-94781400D01*
X103251223Y-94781400D02*
X103318567Y-94781400D01*
X103318567Y-94781400D02*
X103251223Y-94714056D01*
X103958330Y-94006950D02*
X103554269Y-94411011D01*
X103756299Y-94208980D02*
X104463406Y-94916087D01*
X104463406Y-94916087D02*
X104295047Y-94882415D01*
X104295047Y-94882415D02*
X104160360Y-94882415D01*
X104160360Y-94882415D02*
X104059345Y-94916087D01*
X105035826Y-93872263D02*
X104564421Y-93400858D01*
X104732780Y-94175309D02*
X104362391Y-93804919D01*
X104362391Y-93804919D02*
X104328719Y-93703904D01*
X104328719Y-93703904D02*
X104362391Y-93602889D01*
X104362391Y-93602889D02*
X104463406Y-93501874D01*
X104463406Y-93501874D02*
X104564421Y-93468202D01*
X104564421Y-93468202D02*
X104631765Y-93468202D01*
X105507230Y-93198828D02*
X105271528Y-93434530D01*
X104901139Y-93064141D02*
X105608246Y-93771247D01*
X105608246Y-93771247D02*
X105944963Y-93434530D01*
X94847082Y-99769911D02*
X94914426Y-99702568D01*
X94914426Y-99702568D02*
X94948097Y-99601552D01*
X94948097Y-99601552D02*
X94948097Y-99534209D01*
X94948097Y-99534209D02*
X94914426Y-99433194D01*
X94914426Y-99433194D02*
X94813410Y-99264835D01*
X94813410Y-99264835D02*
X94645052Y-99096476D01*
X94645052Y-99096476D02*
X94476693Y-98995461D01*
X94476693Y-98995461D02*
X94375678Y-98961789D01*
X94375678Y-98961789D02*
X94308334Y-98961789D01*
X94308334Y-98961789D02*
X94207319Y-98995461D01*
X94207319Y-98995461D02*
X94139975Y-99062804D01*
X94139975Y-99062804D02*
X94106304Y-99163820D01*
X94106304Y-99163820D02*
X94106304Y-99231163D01*
X94106304Y-99231163D02*
X94139975Y-99332178D01*
X94139975Y-99332178D02*
X94240991Y-99500537D01*
X94240991Y-99500537D02*
X94409349Y-99668896D01*
X94409349Y-99668896D02*
X94577708Y-99769911D01*
X94577708Y-99769911D02*
X94678723Y-99803583D01*
X94678723Y-99803583D02*
X94746067Y-99803583D01*
X94746067Y-99803583D02*
X94847082Y-99769911D01*
X94746067Y-98591400D02*
X94746067Y-98524056D01*
X94746067Y-98524056D02*
X94678723Y-98524056D01*
X94678723Y-98524056D02*
X94678723Y-98591400D01*
X94678723Y-98591400D02*
X94746067Y-98591400D01*
X94746067Y-98591400D02*
X94678723Y-98524056D01*
X95385830Y-97816950D02*
X94981769Y-98221011D01*
X95183799Y-98018980D02*
X95890906Y-98726087D01*
X95890906Y-98726087D02*
X95722547Y-98692415D01*
X95722547Y-98692415D02*
X95587860Y-98692415D01*
X95587860Y-98692415D02*
X95486845Y-98726087D01*
X96463326Y-97682263D02*
X95991921Y-97210858D01*
X96160280Y-97985309D02*
X95789891Y-97614919D01*
X95789891Y-97614919D02*
X95756219Y-97513904D01*
X95756219Y-97513904D02*
X95789891Y-97412889D01*
X95789891Y-97412889D02*
X95890906Y-97311874D01*
X95890906Y-97311874D02*
X95991921Y-97278202D01*
X95991921Y-97278202D02*
X96059265Y-97278202D01*
X96934730Y-97008828D02*
X96699028Y-97244530D01*
X96328639Y-96874141D02*
X97035746Y-97581247D01*
X97035746Y-97581247D02*
X97372463Y-97244530D01*
X85148960Y-103926320D02*
X85283647Y-103791633D01*
X85283647Y-103791633D02*
X85384662Y-103757961D01*
X85384662Y-103757961D02*
X85452006Y-103757961D01*
X85452006Y-103757961D02*
X85620365Y-103791633D01*
X85620365Y-103791633D02*
X85788723Y-103892648D01*
X85788723Y-103892648D02*
X86058097Y-104162022D01*
X86058097Y-104162022D02*
X86091769Y-104263037D01*
X86091769Y-104263037D02*
X86091769Y-104330381D01*
X86091769Y-104330381D02*
X86058097Y-104431396D01*
X86058097Y-104431396D02*
X85923410Y-104566083D01*
X85923410Y-104566083D02*
X85822395Y-104599755D01*
X85822395Y-104599755D02*
X85755052Y-104599755D01*
X85755052Y-104599755D02*
X85654036Y-104566083D01*
X85654036Y-104566083D02*
X85485678Y-104397724D01*
X85485678Y-104397724D02*
X85452006Y-104296709D01*
X85452006Y-104296709D02*
X85452006Y-104229365D01*
X85452006Y-104229365D02*
X85485678Y-104128350D01*
X85485678Y-104128350D02*
X85620365Y-103993663D01*
X85620365Y-103993663D02*
X85721380Y-103959991D01*
X85721380Y-103959991D02*
X85788723Y-103959991D01*
X85788723Y-103959991D02*
X85889739Y-103993663D01*
X86260128Y-103757961D02*
X85553021Y-103050854D01*
X86226456Y-103724289D02*
X86327471Y-103690617D01*
X86327471Y-103690617D02*
X86462158Y-103555930D01*
X86462158Y-103555930D02*
X86495830Y-103454915D01*
X86495830Y-103454915D02*
X86495830Y-103387572D01*
X86495830Y-103387572D02*
X86462158Y-103286556D01*
X86462158Y-103286556D02*
X86260128Y-103084526D01*
X86260128Y-103084526D02*
X86159113Y-103050854D01*
X86159113Y-103050854D02*
X86091769Y-103050854D01*
X86091769Y-103050854D02*
X85990754Y-103084526D01*
X85990754Y-103084526D02*
X85856067Y-103219213D01*
X85856067Y-103219213D02*
X85822395Y-103320228D01*
X87034578Y-102781480D02*
X86798876Y-103017182D01*
X86428487Y-102646793D02*
X87135593Y-103353900D01*
X87135593Y-103353900D02*
X87472311Y-103017182D01*
X83674719Y-92749673D02*
X82674719Y-92749673D01*
X82674719Y-92749673D02*
X83674719Y-93321101D01*
X83674719Y-93321101D02*
X82674719Y-93321101D01*
X82674719Y-93987768D02*
X82674719Y-94178244D01*
X82674719Y-94178244D02*
X82722338Y-94273482D01*
X82722338Y-94273482D02*
X82817576Y-94368720D01*
X82817576Y-94368720D02*
X83008052Y-94416339D01*
X83008052Y-94416339D02*
X83341385Y-94416339D01*
X83341385Y-94416339D02*
X83531861Y-94368720D01*
X83531861Y-94368720D02*
X83627100Y-94273482D01*
X83627100Y-94273482D02*
X83674719Y-94178244D01*
X83674719Y-94178244D02*
X83674719Y-93987768D01*
X83674719Y-93987768D02*
X83627100Y-93892530D01*
X83627100Y-93892530D02*
X83531861Y-93797292D01*
X83531861Y-93797292D02*
X83341385Y-93749673D01*
X83341385Y-93749673D02*
X83008052Y-93749673D01*
X83008052Y-93749673D02*
X82817576Y-93797292D01*
X82817576Y-93797292D02*
X82722338Y-93892530D01*
X82722338Y-93892530D02*
X82674719Y-93987768D01*
X83674719Y-95416339D02*
X83198528Y-95083006D01*
X83674719Y-94844911D02*
X82674719Y-94844911D01*
X82674719Y-94844911D02*
X82674719Y-95225863D01*
X82674719Y-95225863D02*
X82722338Y-95321101D01*
X82722338Y-95321101D02*
X82769957Y-95368720D01*
X82769957Y-95368720D02*
X82865195Y-95416339D01*
X82865195Y-95416339D02*
X83008052Y-95416339D01*
X83008052Y-95416339D02*
X83103290Y-95368720D01*
X83103290Y-95368720D02*
X83150909Y-95321101D01*
X83150909Y-95321101D02*
X83198528Y-95225863D01*
X83198528Y-95225863D02*
X83198528Y-94844911D01*
X83150909Y-96940149D02*
X83150909Y-96606816D01*
X83674719Y-96606816D02*
X82674719Y-96606816D01*
X82674719Y-96606816D02*
X82674719Y-97083006D01*
X83674719Y-97606816D02*
X83627100Y-97511578D01*
X83627100Y-97511578D02*
X83531861Y-97463959D01*
X83531861Y-97463959D02*
X82674719Y-97463959D01*
X83674719Y-98416340D02*
X83150909Y-98416340D01*
X83150909Y-98416340D02*
X83055671Y-98368721D01*
X83055671Y-98368721D02*
X83008052Y-98273483D01*
X83008052Y-98273483D02*
X83008052Y-98083007D01*
X83008052Y-98083007D02*
X83055671Y-97987769D01*
X83627100Y-98416340D02*
X83674719Y-98321102D01*
X83674719Y-98321102D02*
X83674719Y-98083007D01*
X83674719Y-98083007D02*
X83627100Y-97987769D01*
X83627100Y-97987769D02*
X83531861Y-97940150D01*
X83531861Y-97940150D02*
X83436623Y-97940150D01*
X83436623Y-97940150D02*
X83341385Y-97987769D01*
X83341385Y-97987769D02*
X83293766Y-98083007D01*
X83293766Y-98083007D02*
X83293766Y-98321102D01*
X83293766Y-98321102D02*
X83246147Y-98416340D01*
X83627100Y-98844912D02*
X83674719Y-98940150D01*
X83674719Y-98940150D02*
X83674719Y-99130626D01*
X83674719Y-99130626D02*
X83627100Y-99225864D01*
X83627100Y-99225864D02*
X83531861Y-99273483D01*
X83531861Y-99273483D02*
X83484242Y-99273483D01*
X83484242Y-99273483D02*
X83389004Y-99225864D01*
X83389004Y-99225864D02*
X83341385Y-99130626D01*
X83341385Y-99130626D02*
X83341385Y-98987769D01*
X83341385Y-98987769D02*
X83293766Y-98892531D01*
X83293766Y-98892531D02*
X83198528Y-98844912D01*
X83198528Y-98844912D02*
X83150909Y-98844912D01*
X83150909Y-98844912D02*
X83055671Y-98892531D01*
X83055671Y-98892531D02*
X83008052Y-98987769D01*
X83008052Y-98987769D02*
X83008052Y-99130626D01*
X83008052Y-99130626D02*
X83055671Y-99225864D01*
X83674719Y-99702055D02*
X82674719Y-99702055D01*
X83674719Y-100130626D02*
X83150909Y-100130626D01*
X83150909Y-100130626D02*
X83055671Y-100083007D01*
X83055671Y-100083007D02*
X83008052Y-99987769D01*
X83008052Y-99987769D02*
X83008052Y-99844912D01*
X83008052Y-99844912D02*
X83055671Y-99749674D01*
X83055671Y-99749674D02*
X83103290Y-99702055D01*
X92470678Y-111315381D02*
X92706380Y-111079678D01*
X92437006Y-110608274D02*
X92100288Y-110944991D01*
X92100288Y-110944991D02*
X92807395Y-111652098D01*
X92807395Y-111652098D02*
X93144113Y-111315381D01*
X92672708Y-110372572D02*
X93514502Y-110473587D01*
X93144113Y-110843976D02*
X93043097Y-110002182D01*
X93682861Y-110305228D02*
X93952235Y-110035854D01*
X94019578Y-110439915D02*
X93413487Y-109833823D01*
X93413487Y-109833823D02*
X93379815Y-109732808D01*
X93379815Y-109732808D02*
X93413487Y-109631793D01*
X93413487Y-109631793D02*
X93480830Y-109564449D01*
X94019579Y-109093045D02*
X93918563Y-109126716D01*
X93918563Y-109126716D02*
X93783876Y-109261403D01*
X93783876Y-109261403D02*
X93750205Y-109362419D01*
X93750205Y-109362419D02*
X93783876Y-109463434D01*
X93783876Y-109463434D02*
X94053250Y-109732808D01*
X94053250Y-109732808D02*
X94154266Y-109766480D01*
X94154266Y-109766480D02*
X94255281Y-109732808D01*
X94255281Y-109732808D02*
X94389968Y-109598121D01*
X94389968Y-109598121D02*
X94423640Y-109497106D01*
X94423640Y-109497106D02*
X94389968Y-109396090D01*
X94389968Y-109396090D02*
X94322624Y-109328747D01*
X94322624Y-109328747D02*
X93918563Y-109598121D01*
X94322624Y-108722655D02*
X94794029Y-109194060D01*
X94659342Y-109059373D02*
X94760357Y-109093044D01*
X94760357Y-109093044D02*
X94827701Y-109093044D01*
X94827701Y-109093044D02*
X94928716Y-109059373D01*
X94928716Y-109059373D02*
X94996059Y-108992029D01*
X95231762Y-108756327D02*
X94760358Y-108284922D01*
X95164419Y-108688983D02*
X95231762Y-108688983D01*
X95231762Y-108688983D02*
X95332777Y-108655311D01*
X95332777Y-108655311D02*
X95433793Y-108554296D01*
X95433793Y-108554296D02*
X95467464Y-108453281D01*
X95467464Y-108453281D02*
X95433793Y-108352266D01*
X95433793Y-108352266D02*
X95063403Y-107981876D01*
X95703167Y-107342113D02*
X96073556Y-107712502D01*
X96073556Y-107712502D02*
X96107228Y-107813518D01*
X96107228Y-107813518D02*
X96073556Y-107914533D01*
X96073556Y-107914533D02*
X95938869Y-108049220D01*
X95938869Y-108049220D02*
X95837854Y-108082892D01*
X95736838Y-107375785D02*
X95635823Y-107409457D01*
X95635823Y-107409457D02*
X95467464Y-107577815D01*
X95467464Y-107577815D02*
X95433793Y-107678831D01*
X95433793Y-107678831D02*
X95467464Y-107779846D01*
X95467464Y-107779846D02*
X95534808Y-107847189D01*
X95534808Y-107847189D02*
X95635823Y-107880861D01*
X95635823Y-107880861D02*
X95736838Y-107847189D01*
X95736838Y-107847189D02*
X95905197Y-107678831D01*
X95905197Y-107678831D02*
X96006212Y-107645159D01*
X96140899Y-106904380D02*
X96107228Y-107005395D01*
X96107228Y-107005395D02*
X96140899Y-107106411D01*
X96140899Y-107106411D02*
X96746991Y-107712502D01*
X97285740Y-105759540D02*
X96949022Y-106096258D01*
X96949022Y-106096258D02*
X97656129Y-106803364D01*
X97521442Y-105591181D02*
X97588785Y-105456494D01*
X97588785Y-105456494D02*
X97757144Y-105288135D01*
X97757144Y-105288135D02*
X97858159Y-105254464D01*
X97858159Y-105254464D02*
X97925503Y-105254464D01*
X97925503Y-105254464D02*
X98026518Y-105288135D01*
X98026518Y-105288135D02*
X98093862Y-105355479D01*
X98093862Y-105355479D02*
X98127533Y-105456494D01*
X98127533Y-105456494D02*
X98127533Y-105523838D01*
X98127533Y-105523838D02*
X98093862Y-105624853D01*
X98093862Y-105624853D02*
X97992846Y-105793212D01*
X97992846Y-105793212D02*
X97959175Y-105894227D01*
X97959175Y-105894227D02*
X97959175Y-105961570D01*
X97959175Y-105961570D02*
X97992846Y-106062586D01*
X97992846Y-106062586D02*
X98060190Y-106129929D01*
X98060190Y-106129929D02*
X98161205Y-106163601D01*
X98161205Y-106163601D02*
X98228549Y-106163601D01*
X98228549Y-106163601D02*
X98329564Y-106129929D01*
X98329564Y-106129929D02*
X98497923Y-105961570D01*
X98497923Y-105961570D02*
X98565266Y-105826883D01*
X98565266Y-105220792D02*
X98800968Y-104985090D01*
X98531594Y-104513685D02*
X98194877Y-104850403D01*
X98194877Y-104850403D02*
X98901984Y-105557509D01*
X98901984Y-105557509D02*
X99238701Y-105220792D01*
X97460000Y-105080000D02*
X95904365Y-103524365D01*
X95338680Y-102958680D02*
X93783045Y-101403045D01*
X93217359Y-100837359D02*
X92062500Y-99682500D01*
X91745000Y-110795000D02*
X93300635Y-109239365D01*
X93866320Y-108673680D02*
X95421955Y-107118045D01*
X95987641Y-106552359D02*
X97142500Y-105397500D01*
X86030000Y-105080000D02*
X87585635Y-106635635D01*
X88151320Y-107201320D02*
X89706955Y-108756955D01*
X90272641Y-109322641D02*
X91745000Y-110795000D01*
X90475000Y-100635000D02*
X88919365Y-102190635D01*
X88353680Y-102756320D02*
X86798045Y-104311955D01*
X86232359Y-104877641D02*
X86030000Y-105080000D01*
%TO.C,Y2*%
X90756332Y-105395232D02*
X91093049Y-105058515D01*
X90150240Y-105529919D02*
X90756332Y-105395232D01*
X90756332Y-105395232D02*
X90621645Y-106001324D01*
X90891019Y-106136011D02*
X90891019Y-106203354D01*
X90891019Y-106203354D02*
X90924690Y-106304370D01*
X90924690Y-106304370D02*
X91093049Y-106472728D01*
X91093049Y-106472728D02*
X91194064Y-106506400D01*
X91194064Y-106506400D02*
X91261408Y-106506400D01*
X91261408Y-106506400D02*
X91362423Y-106472728D01*
X91362423Y-106472728D02*
X91429767Y-106405385D01*
X91429767Y-106405385D02*
X91497110Y-106270698D01*
X91497110Y-106270698D02*
X91497110Y-105462576D01*
X91497110Y-105462576D02*
X91934843Y-105900309D01*
%TO.C,C10*%
X100115354Y-104055507D02*
X100115354Y-103988164D01*
X100115354Y-103988164D02*
X100048011Y-103853477D01*
X100048011Y-103853477D02*
X99980667Y-103786133D01*
X99980667Y-103786133D02*
X99845980Y-103718790D01*
X99845980Y-103718790D02*
X99711293Y-103718790D01*
X99711293Y-103718790D02*
X99610278Y-103752461D01*
X99610278Y-103752461D02*
X99441919Y-103853477D01*
X99441919Y-103853477D02*
X99340904Y-103954492D01*
X99340904Y-103954492D02*
X99239889Y-104122851D01*
X99239889Y-104122851D02*
X99206217Y-104223866D01*
X99206217Y-104223866D02*
X99206217Y-104358553D01*
X99206217Y-104358553D02*
X99273561Y-104493240D01*
X99273561Y-104493240D02*
X99340904Y-104560583D01*
X99340904Y-104560583D02*
X99475591Y-104627927D01*
X99475591Y-104627927D02*
X99542935Y-104627927D01*
X100856133Y-104661599D02*
X100452072Y-104257538D01*
X100654102Y-104459568D02*
X99946996Y-105166675D01*
X99946996Y-105166675D02*
X99980667Y-104998316D01*
X99980667Y-104998316D02*
X99980667Y-104863629D01*
X99980667Y-104863629D02*
X99946996Y-104762614D01*
X100586759Y-105806438D02*
X100654103Y-105873782D01*
X100654103Y-105873782D02*
X100755118Y-105907454D01*
X100755118Y-105907454D02*
X100822461Y-105907454D01*
X100822461Y-105907454D02*
X100923477Y-105873782D01*
X100923477Y-105873782D02*
X101091835Y-105772767D01*
X101091835Y-105772767D02*
X101260194Y-105604408D01*
X101260194Y-105604408D02*
X101361209Y-105436049D01*
X101361209Y-105436049D02*
X101394881Y-105335034D01*
X101394881Y-105335034D02*
X101394881Y-105267690D01*
X101394881Y-105267690D02*
X101361209Y-105166675D01*
X101361209Y-105166675D02*
X101293866Y-105099331D01*
X101293866Y-105099331D02*
X101192851Y-105065660D01*
X101192851Y-105065660D02*
X101125507Y-105065660D01*
X101125507Y-105065660D02*
X101024492Y-105099331D01*
X101024492Y-105099331D02*
X100856133Y-105200347D01*
X100856133Y-105200347D02*
X100687774Y-105368706D01*
X100687774Y-105368706D02*
X100586759Y-105537064D01*
X100586759Y-105537064D02*
X100553087Y-105638080D01*
X100553087Y-105638080D02*
X100553087Y-105705423D01*
X100553087Y-105705423D02*
X100586759Y-105806438D01*
%TO.C,C9*%
X104897072Y-104392225D02*
X104897072Y-104324882D01*
X104897072Y-104324882D02*
X104829729Y-104190195D01*
X104829729Y-104190195D02*
X104762385Y-104122851D01*
X104762385Y-104122851D02*
X104627698Y-104055508D01*
X104627698Y-104055508D02*
X104493011Y-104055508D01*
X104493011Y-104055508D02*
X104391996Y-104089179D01*
X104391996Y-104089179D02*
X104223637Y-104190195D01*
X104223637Y-104190195D02*
X104122622Y-104291210D01*
X104122622Y-104291210D02*
X104021607Y-104459569D01*
X104021607Y-104459569D02*
X103987935Y-104560584D01*
X103987935Y-104560584D02*
X103987935Y-104695271D01*
X103987935Y-104695271D02*
X104055279Y-104829958D01*
X104055279Y-104829958D02*
X104122622Y-104897301D01*
X104122622Y-104897301D02*
X104257309Y-104964645D01*
X104257309Y-104964645D02*
X104324653Y-104964645D01*
X105301133Y-104661599D02*
X105435820Y-104796286D01*
X105435820Y-104796286D02*
X105469492Y-104897301D01*
X105469492Y-104897301D02*
X105469492Y-104964645D01*
X105469492Y-104964645D02*
X105435820Y-105133004D01*
X105435820Y-105133004D02*
X105334805Y-105301362D01*
X105334805Y-105301362D02*
X105065431Y-105570736D01*
X105065431Y-105570736D02*
X104964416Y-105604408D01*
X104964416Y-105604408D02*
X104897072Y-105604408D01*
X104897072Y-105604408D02*
X104796057Y-105570736D01*
X104796057Y-105570736D02*
X104661370Y-105436049D01*
X104661370Y-105436049D02*
X104627698Y-105335034D01*
X104627698Y-105335034D02*
X104627698Y-105267691D01*
X104627698Y-105267691D02*
X104661370Y-105166675D01*
X104661370Y-105166675D02*
X104829729Y-104998317D01*
X104829729Y-104998317D02*
X104930744Y-104964645D01*
X104930744Y-104964645D02*
X104998088Y-104964645D01*
X104998088Y-104964645D02*
X105099103Y-104998317D01*
X105099103Y-104998317D02*
X105233790Y-105133004D01*
X105233790Y-105133004D02*
X105267462Y-105234019D01*
X105267462Y-105234019D02*
X105267462Y-105301362D01*
X105267462Y-105301362D02*
X105233790Y-105402378D01*
%TO.C,C8*%
X110294572Y-102804725D02*
X110294572Y-102737382D01*
X110294572Y-102737382D02*
X110227229Y-102602695D01*
X110227229Y-102602695D02*
X110159885Y-102535351D01*
X110159885Y-102535351D02*
X110025198Y-102468008D01*
X110025198Y-102468008D02*
X109890511Y-102468008D01*
X109890511Y-102468008D02*
X109789496Y-102501679D01*
X109789496Y-102501679D02*
X109621137Y-102602695D01*
X109621137Y-102602695D02*
X109520122Y-102703710D01*
X109520122Y-102703710D02*
X109419107Y-102872069D01*
X109419107Y-102872069D02*
X109385435Y-102973084D01*
X109385435Y-102973084D02*
X109385435Y-103107771D01*
X109385435Y-103107771D02*
X109452779Y-103242458D01*
X109452779Y-103242458D02*
X109520122Y-103309801D01*
X109520122Y-103309801D02*
X109654809Y-103377145D01*
X109654809Y-103377145D02*
X109722153Y-103377145D01*
X110361916Y-103545504D02*
X110260901Y-103511832D01*
X110260901Y-103511832D02*
X110193557Y-103511832D01*
X110193557Y-103511832D02*
X110092542Y-103545504D01*
X110092542Y-103545504D02*
X110058870Y-103579175D01*
X110058870Y-103579175D02*
X110025198Y-103680191D01*
X110025198Y-103680191D02*
X110025198Y-103747534D01*
X110025198Y-103747534D02*
X110058870Y-103848549D01*
X110058870Y-103848549D02*
X110193557Y-103983236D01*
X110193557Y-103983236D02*
X110294572Y-104016908D01*
X110294572Y-104016908D02*
X110361916Y-104016908D01*
X110361916Y-104016908D02*
X110462931Y-103983236D01*
X110462931Y-103983236D02*
X110496603Y-103949565D01*
X110496603Y-103949565D02*
X110530275Y-103848549D01*
X110530275Y-103848549D02*
X110530275Y-103781206D01*
X110530275Y-103781206D02*
X110496603Y-103680191D01*
X110496603Y-103680191D02*
X110361916Y-103545504D01*
X110361916Y-103545504D02*
X110328244Y-103444488D01*
X110328244Y-103444488D02*
X110328244Y-103377145D01*
X110328244Y-103377145D02*
X110361916Y-103276130D01*
X110361916Y-103276130D02*
X110496603Y-103141443D01*
X110496603Y-103141443D02*
X110597618Y-103107771D01*
X110597618Y-103107771D02*
X110664962Y-103107771D01*
X110664962Y-103107771D02*
X110765977Y-103141443D01*
X110765977Y-103141443D02*
X110900664Y-103276130D01*
X110900664Y-103276130D02*
X110934336Y-103377145D01*
X110934336Y-103377145D02*
X110934336Y-103444488D01*
X110934336Y-103444488D02*
X110900664Y-103545504D01*
X110900664Y-103545504D02*
X110765977Y-103680191D01*
X110765977Y-103680191D02*
X110664962Y-103713862D01*
X110664962Y-103713862D02*
X110597618Y-103713862D01*
X110597618Y-103713862D02*
X110496603Y-103680191D01*
%TO.C,FB1*%
X99781594Y-101579894D02*
X99545891Y-101344192D01*
X99916281Y-100973802D02*
X99209174Y-101680909D01*
X99209174Y-101680909D02*
X99545891Y-102017627D01*
X100387685Y-102185986D02*
X100522372Y-102253329D01*
X100522372Y-102253329D02*
X100589716Y-102253329D01*
X100589716Y-102253329D02*
X100690731Y-102219657D01*
X100690731Y-102219657D02*
X100791746Y-102118642D01*
X100791746Y-102118642D02*
X100825418Y-102017627D01*
X100825418Y-102017627D02*
X100825418Y-101950283D01*
X100825418Y-101950283D02*
X100791746Y-101849268D01*
X100791746Y-101849268D02*
X100522372Y-101579894D01*
X100522372Y-101579894D02*
X99815266Y-102287001D01*
X99815266Y-102287001D02*
X100050968Y-102522703D01*
X100050968Y-102522703D02*
X100151983Y-102556375D01*
X100151983Y-102556375D02*
X100219327Y-102556375D01*
X100219327Y-102556375D02*
X100320342Y-102522703D01*
X100320342Y-102522703D02*
X100387685Y-102455360D01*
X100387685Y-102455360D02*
X100421357Y-102354344D01*
X100421357Y-102354344D02*
X100421357Y-102287001D01*
X100421357Y-102287001D02*
X100387685Y-102185986D01*
X100387685Y-102185986D02*
X100151983Y-101950283D01*
X101599868Y-102657390D02*
X101195807Y-102253329D01*
X101397838Y-102455360D02*
X100690731Y-103162466D01*
X100690731Y-103162466D02*
X100724403Y-102994108D01*
X100724403Y-102994108D02*
X100724403Y-102859421D01*
X100724403Y-102859421D02*
X100690731Y-102758405D01*
%TO.C,C15*%
X118066980Y-87292142D02*
X118114600Y-87244523D01*
X118114600Y-87244523D02*
X118162219Y-87101666D01*
X118162219Y-87101666D02*
X118162219Y-87006428D01*
X118162219Y-87006428D02*
X118114600Y-86863571D01*
X118114600Y-86863571D02*
X118019361Y-86768333D01*
X118019361Y-86768333D02*
X117924123Y-86720714D01*
X117924123Y-86720714D02*
X117733647Y-86673095D01*
X117733647Y-86673095D02*
X117590790Y-86673095D01*
X117590790Y-86673095D02*
X117400314Y-86720714D01*
X117400314Y-86720714D02*
X117305076Y-86768333D01*
X117305076Y-86768333D02*
X117209838Y-86863571D01*
X117209838Y-86863571D02*
X117162219Y-87006428D01*
X117162219Y-87006428D02*
X117162219Y-87101666D01*
X117162219Y-87101666D02*
X117209838Y-87244523D01*
X117209838Y-87244523D02*
X117257457Y-87292142D01*
X118162219Y-88244523D02*
X118162219Y-87673095D01*
X118162219Y-87958809D02*
X117162219Y-87958809D01*
X117162219Y-87958809D02*
X117305076Y-87863571D01*
X117305076Y-87863571D02*
X117400314Y-87768333D01*
X117400314Y-87768333D02*
X117447933Y-87673095D01*
X117162219Y-89149285D02*
X117162219Y-88673095D01*
X117162219Y-88673095D02*
X117638409Y-88625476D01*
X117638409Y-88625476D02*
X117590790Y-88673095D01*
X117590790Y-88673095D02*
X117543171Y-88768333D01*
X117543171Y-88768333D02*
X117543171Y-89006428D01*
X117543171Y-89006428D02*
X117590790Y-89101666D01*
X117590790Y-89101666D02*
X117638409Y-89149285D01*
X117638409Y-89149285D02*
X117733647Y-89196904D01*
X117733647Y-89196904D02*
X117971742Y-89196904D01*
X117971742Y-89196904D02*
X118066980Y-89149285D01*
X118066980Y-89149285D02*
X118114600Y-89101666D01*
X118114600Y-89101666D02*
X118162219Y-89006428D01*
X118162219Y-89006428D02*
X118162219Y-88768333D01*
X118162219Y-88768333D02*
X118114600Y-88673095D01*
X118114600Y-88673095D02*
X118066980Y-88625476D01*
%TO.C,C7*%
X109024572Y-104074725D02*
X109024572Y-104007382D01*
X109024572Y-104007382D02*
X108957229Y-103872695D01*
X108957229Y-103872695D02*
X108889885Y-103805351D01*
X108889885Y-103805351D02*
X108755198Y-103738008D01*
X108755198Y-103738008D02*
X108620511Y-103738008D01*
X108620511Y-103738008D02*
X108519496Y-103771679D01*
X108519496Y-103771679D02*
X108351137Y-103872695D01*
X108351137Y-103872695D02*
X108250122Y-103973710D01*
X108250122Y-103973710D02*
X108149107Y-104142069D01*
X108149107Y-104142069D02*
X108115435Y-104243084D01*
X108115435Y-104243084D02*
X108115435Y-104377771D01*
X108115435Y-104377771D02*
X108182779Y-104512458D01*
X108182779Y-104512458D02*
X108250122Y-104579801D01*
X108250122Y-104579801D02*
X108384809Y-104647145D01*
X108384809Y-104647145D02*
X108452153Y-104647145D01*
X108620511Y-104950191D02*
X109091916Y-105421595D01*
X109091916Y-105421595D02*
X109495977Y-104411443D01*
%TO.C,C6*%
X107754572Y-105344725D02*
X107754572Y-105277382D01*
X107754572Y-105277382D02*
X107687229Y-105142695D01*
X107687229Y-105142695D02*
X107619885Y-105075351D01*
X107619885Y-105075351D02*
X107485198Y-105008008D01*
X107485198Y-105008008D02*
X107350511Y-105008008D01*
X107350511Y-105008008D02*
X107249496Y-105041679D01*
X107249496Y-105041679D02*
X107081137Y-105142695D01*
X107081137Y-105142695D02*
X106980122Y-105243710D01*
X106980122Y-105243710D02*
X106879107Y-105412069D01*
X106879107Y-105412069D02*
X106845435Y-105513084D01*
X106845435Y-105513084D02*
X106845435Y-105647771D01*
X106845435Y-105647771D02*
X106912779Y-105782458D01*
X106912779Y-105782458D02*
X106980122Y-105849801D01*
X106980122Y-105849801D02*
X107114809Y-105917145D01*
X107114809Y-105917145D02*
X107182153Y-105917145D01*
X107720901Y-106590580D02*
X107586214Y-106455893D01*
X107586214Y-106455893D02*
X107552542Y-106354878D01*
X107552542Y-106354878D02*
X107552542Y-106287534D01*
X107552542Y-106287534D02*
X107586214Y-106119175D01*
X107586214Y-106119175D02*
X107687229Y-105950817D01*
X107687229Y-105950817D02*
X107956603Y-105681443D01*
X107956603Y-105681443D02*
X108057618Y-105647771D01*
X108057618Y-105647771D02*
X108124962Y-105647771D01*
X108124962Y-105647771D02*
X108225977Y-105681443D01*
X108225977Y-105681443D02*
X108360664Y-105816130D01*
X108360664Y-105816130D02*
X108394336Y-105917145D01*
X108394336Y-105917145D02*
X108394336Y-105984488D01*
X108394336Y-105984488D02*
X108360664Y-106085504D01*
X108360664Y-106085504D02*
X108192305Y-106253862D01*
X108192305Y-106253862D02*
X108091290Y-106287534D01*
X108091290Y-106287534D02*
X108023946Y-106287534D01*
X108023946Y-106287534D02*
X107922931Y-106253862D01*
X107922931Y-106253862D02*
X107788244Y-106119175D01*
X107788244Y-106119175D02*
X107754572Y-106018160D01*
X107754572Y-106018160D02*
X107754572Y-105950817D01*
X107754572Y-105950817D02*
X107788244Y-105849801D01*
%TO.C,C5*%
X91562072Y-95184725D02*
X91562072Y-95117382D01*
X91562072Y-95117382D02*
X91494729Y-94982695D01*
X91494729Y-94982695D02*
X91427385Y-94915351D01*
X91427385Y-94915351D02*
X91292698Y-94848008D01*
X91292698Y-94848008D02*
X91158011Y-94848008D01*
X91158011Y-94848008D02*
X91056996Y-94881679D01*
X91056996Y-94881679D02*
X90888637Y-94982695D01*
X90888637Y-94982695D02*
X90787622Y-95083710D01*
X90787622Y-95083710D02*
X90686607Y-95252069D01*
X90686607Y-95252069D02*
X90652935Y-95353084D01*
X90652935Y-95353084D02*
X90652935Y-95487771D01*
X90652935Y-95487771D02*
X90720279Y-95622458D01*
X90720279Y-95622458D02*
X90787622Y-95689801D01*
X90787622Y-95689801D02*
X90922309Y-95757145D01*
X90922309Y-95757145D02*
X90989653Y-95757145D01*
X91562072Y-96464252D02*
X91225355Y-96127534D01*
X91225355Y-96127534D02*
X91528401Y-95757145D01*
X91528401Y-95757145D02*
X91528401Y-95824488D01*
X91528401Y-95824488D02*
X91562072Y-95925504D01*
X91562072Y-95925504D02*
X91730431Y-96093862D01*
X91730431Y-96093862D02*
X91831446Y-96127534D01*
X91831446Y-96127534D02*
X91898790Y-96127534D01*
X91898790Y-96127534D02*
X91999805Y-96093862D01*
X91999805Y-96093862D02*
X92168164Y-95925504D01*
X92168164Y-95925504D02*
X92201836Y-95824488D01*
X92201836Y-95824488D02*
X92201836Y-95757145D01*
X92201836Y-95757145D02*
X92168164Y-95656130D01*
X92168164Y-95656130D02*
X91999805Y-95487771D01*
X91999805Y-95487771D02*
X91898790Y-95454099D01*
X91898790Y-95454099D02*
X91831446Y-95454099D01*
%TO.C,C4*%
X92832072Y-93914725D02*
X92832072Y-93847382D01*
X92832072Y-93847382D02*
X92764729Y-93712695D01*
X92764729Y-93712695D02*
X92697385Y-93645351D01*
X92697385Y-93645351D02*
X92562698Y-93578008D01*
X92562698Y-93578008D02*
X92428011Y-93578008D01*
X92428011Y-93578008D02*
X92326996Y-93611679D01*
X92326996Y-93611679D02*
X92158637Y-93712695D01*
X92158637Y-93712695D02*
X92057622Y-93813710D01*
X92057622Y-93813710D02*
X91956607Y-93982069D01*
X91956607Y-93982069D02*
X91922935Y-94083084D01*
X91922935Y-94083084D02*
X91922935Y-94217771D01*
X91922935Y-94217771D02*
X91990279Y-94352458D01*
X91990279Y-94352458D02*
X92057622Y-94419801D01*
X92057622Y-94419801D02*
X92192309Y-94487145D01*
X92192309Y-94487145D02*
X92259653Y-94487145D01*
X93034103Y-94924878D02*
X93505507Y-94453473D01*
X92596370Y-95025893D02*
X92933088Y-94352458D01*
X92933088Y-94352458D02*
X93370820Y-94790191D01*
%TO.C,C3*%
X104709725Y-91610427D02*
X104642382Y-91610427D01*
X104642382Y-91610427D02*
X104507695Y-91677770D01*
X104507695Y-91677770D02*
X104440351Y-91745114D01*
X104440351Y-91745114D02*
X104373008Y-91879801D01*
X104373008Y-91879801D02*
X104373008Y-92014488D01*
X104373008Y-92014488D02*
X104406679Y-92115503D01*
X104406679Y-92115503D02*
X104507695Y-92283862D01*
X104507695Y-92283862D02*
X104608710Y-92384877D01*
X104608710Y-92384877D02*
X104777069Y-92485892D01*
X104777069Y-92485892D02*
X104878084Y-92519564D01*
X104878084Y-92519564D02*
X105012771Y-92519564D01*
X105012771Y-92519564D02*
X105147458Y-92452220D01*
X105147458Y-92452220D02*
X105214801Y-92384877D01*
X105214801Y-92384877D02*
X105282145Y-92250190D01*
X105282145Y-92250190D02*
X105282145Y-92182846D01*
X105585191Y-92014488D02*
X106022923Y-91576755D01*
X106022923Y-91576755D02*
X105517847Y-91543083D01*
X105517847Y-91543083D02*
X105618862Y-91442068D01*
X105618862Y-91442068D02*
X105652534Y-91341053D01*
X105652534Y-91341053D02*
X105652534Y-91273709D01*
X105652534Y-91273709D02*
X105618862Y-91172694D01*
X105618862Y-91172694D02*
X105450504Y-91004335D01*
X105450504Y-91004335D02*
X105349488Y-90970663D01*
X105349488Y-90970663D02*
X105282145Y-90970663D01*
X105282145Y-90970663D02*
X105181130Y-91004335D01*
X105181130Y-91004335D02*
X104979099Y-91206366D01*
X104979099Y-91206366D02*
X104945427Y-91307381D01*
X104945427Y-91307381D02*
X104945427Y-91374724D01*
%TO.C,C2*%
X103439725Y-90340427D02*
X103372382Y-90340427D01*
X103372382Y-90340427D02*
X103237695Y-90407770D01*
X103237695Y-90407770D02*
X103170351Y-90475114D01*
X103170351Y-90475114D02*
X103103008Y-90609801D01*
X103103008Y-90609801D02*
X103103008Y-90744488D01*
X103103008Y-90744488D02*
X103136679Y-90845503D01*
X103136679Y-90845503D02*
X103237695Y-91013862D01*
X103237695Y-91013862D02*
X103338710Y-91114877D01*
X103338710Y-91114877D02*
X103507069Y-91215892D01*
X103507069Y-91215892D02*
X103608084Y-91249564D01*
X103608084Y-91249564D02*
X103742771Y-91249564D01*
X103742771Y-91249564D02*
X103877458Y-91182220D01*
X103877458Y-91182220D02*
X103944801Y-91114877D01*
X103944801Y-91114877D02*
X104012145Y-90980190D01*
X104012145Y-90980190D02*
X104012145Y-90912846D01*
X104281519Y-90643472D02*
X104348862Y-90643472D01*
X104348862Y-90643472D02*
X104449878Y-90609801D01*
X104449878Y-90609801D02*
X104618236Y-90441442D01*
X104618236Y-90441442D02*
X104651908Y-90340427D01*
X104651908Y-90340427D02*
X104651908Y-90273083D01*
X104651908Y-90273083D02*
X104618236Y-90172068D01*
X104618236Y-90172068D02*
X104550893Y-90104724D01*
X104550893Y-90104724D02*
X104416206Y-90037381D01*
X104416206Y-90037381D02*
X103608084Y-90037381D01*
X103608084Y-90037381D02*
X104045817Y-89599648D01*
%TO.C,C14*%
X93895507Y-106869645D02*
X93828164Y-106869645D01*
X93828164Y-106869645D02*
X93693477Y-106936988D01*
X93693477Y-106936988D02*
X93626133Y-107004332D01*
X93626133Y-107004332D02*
X93558790Y-107139019D01*
X93558790Y-107139019D02*
X93558790Y-107273706D01*
X93558790Y-107273706D02*
X93592461Y-107374721D01*
X93592461Y-107374721D02*
X93693477Y-107543080D01*
X93693477Y-107543080D02*
X93794492Y-107644095D01*
X93794492Y-107644095D02*
X93962851Y-107745110D01*
X93962851Y-107745110D02*
X94063866Y-107778782D01*
X94063866Y-107778782D02*
X94198553Y-107778782D01*
X94198553Y-107778782D02*
X94333240Y-107711438D01*
X94333240Y-107711438D02*
X94400583Y-107644095D01*
X94400583Y-107644095D02*
X94467927Y-107509408D01*
X94467927Y-107509408D02*
X94467927Y-107442064D01*
X94501599Y-106128866D02*
X94097538Y-106532927D01*
X94299568Y-106330897D02*
X95006675Y-107038003D01*
X95006675Y-107038003D02*
X94838316Y-107004332D01*
X94838316Y-107004332D02*
X94703629Y-107004332D01*
X94703629Y-107004332D02*
X94602614Y-107038003D01*
X95579095Y-105994179D02*
X95107690Y-105522774D01*
X95680110Y-106431912D02*
X95006675Y-106095194D01*
X95006675Y-106095194D02*
X95444408Y-105657461D01*
%TO.C,C13*%
X89450507Y-102424645D02*
X89383164Y-102424645D01*
X89383164Y-102424645D02*
X89248477Y-102491988D01*
X89248477Y-102491988D02*
X89181133Y-102559332D01*
X89181133Y-102559332D02*
X89113790Y-102694019D01*
X89113790Y-102694019D02*
X89113790Y-102828706D01*
X89113790Y-102828706D02*
X89147461Y-102929721D01*
X89147461Y-102929721D02*
X89248477Y-103098080D01*
X89248477Y-103098080D02*
X89349492Y-103199095D01*
X89349492Y-103199095D02*
X89517851Y-103300110D01*
X89517851Y-103300110D02*
X89618866Y-103333782D01*
X89618866Y-103333782D02*
X89753553Y-103333782D01*
X89753553Y-103333782D02*
X89888240Y-103266438D01*
X89888240Y-103266438D02*
X89955583Y-103199095D01*
X89955583Y-103199095D02*
X90022927Y-103064408D01*
X90022927Y-103064408D02*
X90022927Y-102997064D01*
X90056599Y-101683866D02*
X89652538Y-102087927D01*
X89854568Y-101885897D02*
X90561675Y-102593003D01*
X90561675Y-102593003D02*
X90393316Y-102559332D01*
X90393316Y-102559332D02*
X90258629Y-102559332D01*
X90258629Y-102559332D02*
X90157614Y-102593003D01*
X90999408Y-102155270D02*
X91437141Y-101717538D01*
X91437141Y-101717538D02*
X90932064Y-101683866D01*
X90932064Y-101683866D02*
X91033080Y-101582851D01*
X91033080Y-101582851D02*
X91066751Y-101481835D01*
X91066751Y-101481835D02*
X91066751Y-101414492D01*
X91066751Y-101414492D02*
X91033080Y-101313477D01*
X91033080Y-101313477D02*
X90864721Y-101145118D01*
X90864721Y-101145118D02*
X90763706Y-101111446D01*
X90763706Y-101111446D02*
X90696362Y-101111446D01*
X90696362Y-101111446D02*
X90595347Y-101145118D01*
X90595347Y-101145118D02*
X90393316Y-101347148D01*
X90393316Y-101347148D02*
X90359644Y-101448164D01*
X90359644Y-101448164D02*
X90359644Y-101515507D01*
%TO.C,J3*%
X75536666Y-81672219D02*
X75536666Y-82386504D01*
X75536666Y-82386504D02*
X75489047Y-82529361D01*
X75489047Y-82529361D02*
X75393809Y-82624600D01*
X75393809Y-82624600D02*
X75250952Y-82672219D01*
X75250952Y-82672219D02*
X75155714Y-82672219D01*
X75917619Y-81672219D02*
X76536666Y-81672219D01*
X76536666Y-81672219D02*
X76203333Y-82053171D01*
X76203333Y-82053171D02*
X76346190Y-82053171D01*
X76346190Y-82053171D02*
X76441428Y-82100790D01*
X76441428Y-82100790D02*
X76489047Y-82148409D01*
X76489047Y-82148409D02*
X76536666Y-82243647D01*
X76536666Y-82243647D02*
X76536666Y-82481742D01*
X76536666Y-82481742D02*
X76489047Y-82576980D01*
X76489047Y-82576980D02*
X76441428Y-82624600D01*
X76441428Y-82624600D02*
X76346190Y-82672219D01*
X76346190Y-82672219D02*
X76060476Y-82672219D01*
X76060476Y-82672219D02*
X75965238Y-82624600D01*
X75965238Y-82624600D02*
X75917619Y-82576980D01*
%TO.C,J1*%
X118292219Y-82553333D02*
X119006504Y-82553333D01*
X119006504Y-82553333D02*
X119149361Y-82600952D01*
X119149361Y-82600952D02*
X119244600Y-82696190D01*
X119244600Y-82696190D02*
X119292219Y-82839047D01*
X119292219Y-82839047D02*
X119292219Y-82934285D01*
X119292219Y-81553333D02*
X119292219Y-82124761D01*
X119292219Y-81839047D02*
X118292219Y-81839047D01*
X118292219Y-81839047D02*
X118435076Y-81934285D01*
X118435076Y-81934285D02*
X118530314Y-82029523D01*
X118530314Y-82029523D02*
X118577933Y-82124761D01*
%TO.C,J4*%
X88232219Y-118113333D02*
X88946504Y-118113333D01*
X88946504Y-118113333D02*
X89089361Y-118160952D01*
X89089361Y-118160952D02*
X89184600Y-118256190D01*
X89184600Y-118256190D02*
X89232219Y-118399047D01*
X89232219Y-118399047D02*
X89232219Y-118494285D01*
X88565552Y-117208571D02*
X89232219Y-117208571D01*
X88184600Y-117446666D02*
X88898885Y-117684761D01*
X88898885Y-117684761D02*
X88898885Y-117065714D01*
%TO.C,J2*%
X123796666Y-81672219D02*
X123796666Y-82386504D01*
X123796666Y-82386504D02*
X123749047Y-82529361D01*
X123749047Y-82529361D02*
X123653809Y-82624600D01*
X123653809Y-82624600D02*
X123510952Y-82672219D01*
X123510952Y-82672219D02*
X123415714Y-82672219D01*
X124225238Y-81767457D02*
X124272857Y-81719838D01*
X124272857Y-81719838D02*
X124368095Y-81672219D01*
X124368095Y-81672219D02*
X124606190Y-81672219D01*
X124606190Y-81672219D02*
X124701428Y-81719838D01*
X124701428Y-81719838D02*
X124749047Y-81767457D01*
X124749047Y-81767457D02*
X124796666Y-81862695D01*
X124796666Y-81862695D02*
X124796666Y-81957933D01*
X124796666Y-81957933D02*
X124749047Y-82100790D01*
X124749047Y-82100790D02*
X124177619Y-82672219D01*
X124177619Y-82672219D02*
X124796666Y-82672219D01*
%TO.C,U3*%
X85307780Y-96951904D02*
X84498257Y-96951904D01*
X84498257Y-96951904D02*
X84403019Y-96904285D01*
X84403019Y-96904285D02*
X84355400Y-96856666D01*
X84355400Y-96856666D02*
X84307780Y-96761428D01*
X84307780Y-96761428D02*
X84307780Y-96570952D01*
X84307780Y-96570952D02*
X84355400Y-96475714D01*
X84355400Y-96475714D02*
X84403019Y-96428095D01*
X84403019Y-96428095D02*
X84498257Y-96380476D01*
X84498257Y-96380476D02*
X85307780Y-96380476D01*
X85307780Y-95999523D02*
X85307780Y-95380476D01*
X85307780Y-95380476D02*
X84926828Y-95713809D01*
X84926828Y-95713809D02*
X84926828Y-95570952D01*
X84926828Y-95570952D02*
X84879209Y-95475714D01*
X84879209Y-95475714D02*
X84831590Y-95428095D01*
X84831590Y-95428095D02*
X84736352Y-95380476D01*
X84736352Y-95380476D02*
X84498257Y-95380476D01*
X84498257Y-95380476D02*
X84403019Y-95428095D01*
X84403019Y-95428095D02*
X84355400Y-95475714D01*
X84355400Y-95475714D02*
X84307780Y-95570952D01*
X84307780Y-95570952D02*
X84307780Y-95856666D01*
X84307780Y-95856666D02*
X84355400Y-95951904D01*
X84355400Y-95951904D02*
X84403019Y-95999523D01*
%TO.C,Y2*%
X89486447Y-107197132D02*
X89627868Y-107338553D01*
X89627868Y-107338553D02*
X90193553Y-106772868D01*
X90193553Y-106772868D02*
X90052132Y-106631447D01*
X90052132Y-106631447D02*
X89486447Y-107197132D01*
X89981421Y-107479975D02*
X90334975Y-107126421D01*
X90158198Y-106101117D02*
X90723883Y-106666802D01*
X88956117Y-107303198D02*
X89521802Y-107868883D01*
X89345025Y-106843579D02*
X89698579Y-106490025D01*
%TO.C,C10*%
X102469289Y-107338553D02*
X102893553Y-106914289D01*
X102186447Y-107055711D02*
X102610711Y-106631447D01*
%TO.C,C9*%
X103739289Y-106068553D02*
X104163553Y-105644289D01*
X103456447Y-105785711D02*
X103880711Y-105361447D01*
%TO.C,C8*%
X108184289Y-101623553D02*
X108608553Y-101199289D01*
X107901447Y-101340711D02*
X108325711Y-100916447D01*
%TO.C,FB1*%
X101199289Y-101623553D02*
X101482132Y-101057868D01*
X101199289Y-101623553D02*
X101057868Y-101482132D01*
X101482132Y-101057868D02*
X101340711Y-100916447D01*
X101057868Y-101482132D02*
X101340711Y-100916447D01*
%TO.C,C15*%
X116810000Y-87735000D02*
X116210000Y-87735000D01*
X116810000Y-88135000D02*
X116210000Y-88135000D01*
%TO.C,C7*%
X106914289Y-102893553D02*
X107338553Y-102469289D01*
X106631447Y-102610711D02*
X107055711Y-102186447D01*
%TO.C,C6*%
X105361447Y-103880711D02*
X105785711Y-103456447D01*
X105644289Y-104163553D02*
X106068553Y-103739289D01*
%TO.C,C5*%
X93368553Y-97389289D02*
X92944289Y-97813553D01*
X93085711Y-97106447D02*
X92661447Y-97530711D01*
%TO.C,C4*%
X94638553Y-96119289D02*
X94214289Y-96543553D01*
X94355711Y-95836447D02*
X93931447Y-96260711D01*
%TO.C,C3*%
X103528553Y-93720711D02*
X103104289Y-93296447D01*
X103245711Y-94003553D02*
X102821447Y-93579289D01*
%TO.C,C2*%
X101975711Y-92733553D02*
X101551447Y-92309289D01*
X102258553Y-92450711D02*
X101834289Y-92026447D01*
%TO.C,C14*%
X93720711Y-106068553D02*
X93296447Y-105644289D01*
X94003553Y-105785711D02*
X93579289Y-105361447D01*
%TO.C,C13*%
X91180711Y-103528553D02*
X90756447Y-103104289D01*
X91463553Y-103245711D02*
X91039289Y-102821447D01*
%TO.C,J3*%
X70155000Y-83490000D02*
X72060000Y-83490000D01*
X72060000Y-83490000D02*
X72060000Y-81585000D01*
X74700000Y-81585000D02*
X74700000Y-118415000D01*
%TO.C,J1*%
X117780000Y-81585000D02*
X117780000Y-82280000D01*
X115240000Y-81585000D02*
X115240000Y-83590000D01*
X82120000Y-81585000D02*
X82120000Y-83590000D01*
X115240000Y-83590000D02*
X82120000Y-83590000D01*
%TO.C,J4*%
X92380000Y-116410000D02*
X117880000Y-116410000D01*
X117880000Y-118415000D02*
X117880000Y-116410000D01*
X92380000Y-118415000D02*
X92380000Y-116410000D01*
X89740000Y-118415000D02*
X89740000Y-117780000D01*
%TO.C,J2*%
X125300000Y-82220000D02*
X125300000Y-81585000D01*
X125300000Y-83490000D02*
X125300000Y-118415000D01*
X125300000Y-83490000D02*
X127940000Y-83490000D01*
X127940000Y-83490000D02*
X127940000Y-81585000D01*
%TO.C,U3*%
X84700000Y-98240000D02*
X84200000Y-98240000D01*
X89900000Y-98240000D02*
X89900000Y-99740000D01*
X89900000Y-98240000D02*
X90400000Y-98240000D01*
X84200000Y-97240000D02*
X84200000Y-98240000D01*
X90400000Y-97240000D02*
X90400000Y-98240000D01*
X84200000Y-95140000D02*
X84200000Y-94140000D01*
X90400000Y-95140000D02*
X90400000Y-94140000D01*
X84700000Y-94140000D02*
X84200000Y-94140000D01*
X89900000Y-94140000D02*
X90400000Y-94140000D01*
%TD*%
M02*
