M48
; DRILL file {KiCad 7.0.5} date Mon Aug 21 09:28:48 2023
; FORMAT={-:-/ absolute / inch / decimal}
; #@! TF.CreationDate,2023-08-21T09:28:48+09:00
; #@! TF.GenerationSoftware,Kicad,Pcbnew,7.0.5
; #@! TF.FileFunction,Plated,1,2,PTH
FMAT,2
INCH
; #@! TA.AperFunction,Plated,PTH,ViaDrill
T1C0.0157
; #@! TA.AperFunction,Plated,PTH,ComponentDrill
T2C0.0236
; #@! TA.AperFunction,Plated,PTH,ComponentDrill
T3C0.0335
; #@! TA.AperFunction,Plated,PTH,ComponentDrill
T4C0.0394
%
G90
G05
T1
X2.9745Y-4.5745
X3.012Y-3.3245
X3.012Y-3.3745
X3.012Y-4.337
X3.0245Y-4.5745
X3.037Y-4.0245
X3.062Y-4.337
X3.087Y-4.012
X3.112Y-3.412
X3.112Y-4.337
X3.137Y-3.462
X3.2495Y-3.3245
X3.287Y-4.362
X3.2995Y-4.6495
X3.3495Y-4.6495
X3.362Y-4.262
X3.362Y-4.387
X3.3995Y-4.5995
X3.3995Y-4.6495
X3.4495Y-4.5995
X3.4495Y-4.6495
X3.487Y-3.512
X3.512Y-3.462
X3.5745Y-3.937
X3.612Y-3.887
X3.612Y-4.387
X3.662Y-4.037
X3.687Y-3.812
X3.712Y-3.962
X3.712Y-4.087
X3.737Y-3.512
X3.762Y-4.112
X3.787Y-3.512
X3.787Y-3.712
X3.8495Y-4.4995
X3.887Y-3.637
X3.8995Y-4.4995
X3.912Y-4.237
X3.9245Y-3.7745
X3.937Y-3.3995
X3.937Y-3.537
X3.937Y-3.687
X3.987Y-3.512
X4.012Y-4.087
X4.037Y-3.512
X4.037Y-3.812
X4.0495Y-3.3745
X4.062Y-4.062
X4.137Y-3.787
X4.187Y-3.837
X4.187Y-4.237
X4.287Y-3.962
X4.312Y-3.562
X4.337Y-4.537
X4.437Y-4.5245
X4.487Y-3.362
X4.487Y-3.412
X4.487Y-3.512
X4.487Y-3.562
X4.487Y-4.5245
X4.537Y-3.362
X4.537Y-3.412
X4.537Y-3.512
X4.537Y-3.562
X4.537Y-4.5245
X4.587Y-3.312
X4.587Y-3.362
X4.587Y-3.562
X4.587Y-3.937
X4.587Y-3.987
X4.637Y-3.312
X4.637Y-3.937
X4.637Y-3.987
X4.6495Y-3.5745
X4.662Y-4.637
X4.687Y-3.212
X4.687Y-3.262
X4.687Y-3.312
X4.687Y-3.937
X4.687Y-3.987
X4.712Y-4.437
X4.712Y-4.487
X4.7245Y-3.4995
X4.737Y-3.212
X4.737Y-3.937
X4.737Y-3.987
X4.762Y-4.487
X4.762Y-4.537
X4.787Y-3.212
X4.787Y-3.937
X4.787Y-3.987
X4.812Y-4.537
X4.837Y-3.937
X4.837Y-3.987
T2
X3.287Y-3.362
X3.287Y-3.412
X3.287Y-3.462
X3.287Y-3.512
X3.287Y-3.562
X3.337Y-3.362
X3.337Y-3.412
X3.337Y-3.462
X3.337Y-3.512
X3.337Y-3.562
T3
X4.2917Y-4.437
X4.3902Y-4.437
X4.4886Y-4.437
X4.587Y-4.437
T4
X2.787Y-3.237
X2.787Y-3.337
X2.787Y-3.437
X2.787Y-3.537
X2.787Y-3.637
X2.787Y-3.737
X2.787Y-3.837
X2.787Y-3.937
X2.787Y-4.037
X2.787Y-4.137
X2.787Y-4.237
X2.787Y-4.337
X2.787Y-4.437
X2.787Y-4.537
X2.787Y-4.637
X2.887Y-3.237
X2.887Y-3.337
X2.887Y-3.437
X2.887Y-3.537
X2.887Y-3.637
X2.887Y-3.737
X2.887Y-3.837
X2.887Y-3.937
X2.887Y-4.037
X2.887Y-4.137
X2.887Y-4.237
X2.887Y-4.337
X2.887Y-4.437
X2.887Y-4.537
X2.887Y-4.637
X3.187Y-4.137
X3.187Y-4.337
X3.187Y-4.537
X3.287Y-3.237
X3.387Y-3.237
X3.487Y-3.237
X3.587Y-3.237
X3.587Y-3.437
X3.587Y-4.637
X3.687Y-3.237
X3.687Y-3.437
X3.687Y-4.637
X3.787Y-3.237
X3.787Y-3.437
X3.787Y-4.637
X3.887Y-3.237
X3.887Y-3.437
X3.887Y-4.637
X3.987Y-3.237
X3.987Y-3.437
X3.987Y-4.637
X4.087Y-3.237
X4.087Y-3.437
X4.087Y-4.637
X4.187Y-3.237
X4.187Y-4.637
X4.287Y-3.237
X4.287Y-4.637
X4.387Y-3.237
X4.387Y-4.637
X4.487Y-3.237
X4.487Y-4.637
X4.587Y-3.237
X4.587Y-4.637
X4.987Y-3.237
X4.987Y-3.337
X4.987Y-3.437
X4.987Y-3.537
X4.987Y-3.637
X4.987Y-3.737
X4.987Y-3.837
X4.987Y-3.937
X4.987Y-4.037
X4.987Y-4.137
X4.987Y-4.237
X4.987Y-4.337
X4.987Y-4.437
X4.987Y-4.537
X4.987Y-4.637
X5.087Y-3.237
X5.087Y-3.337
X5.087Y-3.437
X5.087Y-3.537
X5.087Y-3.637
X5.087Y-3.737
X5.087Y-3.837
X5.087Y-3.937
X5.087Y-4.037
X5.087Y-4.137
X5.087Y-4.237
X5.087Y-4.337
X5.087Y-4.437
X5.087Y-4.537
X5.087Y-4.637
T0
M30
