%TF.GenerationSoftware,KiCad,Pcbnew,7.0.5*%
%TF.CreationDate,2023-08-21T09:28:54+09:00*%
%TF.ProjectId,STM32G4 MAZE,53544d33-3247-4342-904d-415a452e6b69,rev?*%
%TF.SameCoordinates,Original*%
%TF.FileFunction,Legend,Top*%
%TF.FilePolarity,Positive*%
%FSLAX46Y46*%
G04 Gerber Fmt 4.6, Leading zero omitted, Abs format (unit mm)*
G04 Created by KiCad (PCBNEW 7.0.5) date 2023-08-21 09:28:54*
%MOMM*%
%LPD*%
G01*
G04 APERTURE LIST*
%ADD10C,0.200000*%
G04 APERTURE END LIST*
D10*
X113022054Y-107217457D02*
X113069673Y-107169838D01*
X113069673Y-107169838D02*
X113164911Y-107122219D01*
X113164911Y-107122219D02*
X113403006Y-107122219D01*
X113403006Y-107122219D02*
X113498244Y-107169838D01*
X113498244Y-107169838D02*
X113545863Y-107217457D01*
X113545863Y-107217457D02*
X113593482Y-107312695D01*
X113593482Y-107312695D02*
X113593482Y-107407933D01*
X113593482Y-107407933D02*
X113545863Y-107550790D01*
X113545863Y-107550790D02*
X112974435Y-108122219D01*
X112974435Y-108122219D02*
X113593482Y-108122219D01*
X114212530Y-107122219D02*
X114307768Y-107122219D01*
X114307768Y-107122219D02*
X114403006Y-107169838D01*
X114403006Y-107169838D02*
X114450625Y-107217457D01*
X114450625Y-107217457D02*
X114498244Y-107312695D01*
X114498244Y-107312695D02*
X114545863Y-107503171D01*
X114545863Y-107503171D02*
X114545863Y-107741266D01*
X114545863Y-107741266D02*
X114498244Y-107931742D01*
X114498244Y-107931742D02*
X114450625Y-108026980D01*
X114450625Y-108026980D02*
X114403006Y-108074600D01*
X114403006Y-108074600D02*
X114307768Y-108122219D01*
X114307768Y-108122219D02*
X114212530Y-108122219D01*
X114212530Y-108122219D02*
X114117292Y-108074600D01*
X114117292Y-108074600D02*
X114069673Y-108026980D01*
X114069673Y-108026980D02*
X114022054Y-107931742D01*
X114022054Y-107931742D02*
X113974435Y-107741266D01*
X113974435Y-107741266D02*
X113974435Y-107503171D01*
X113974435Y-107503171D02*
X114022054Y-107312695D01*
X114022054Y-107312695D02*
X114069673Y-107217457D01*
X114069673Y-107217457D02*
X114117292Y-107169838D01*
X114117292Y-107169838D02*
X114212530Y-107122219D01*
X114926816Y-107217457D02*
X114974435Y-107169838D01*
X114974435Y-107169838D02*
X115069673Y-107122219D01*
X115069673Y-107122219D02*
X115307768Y-107122219D01*
X115307768Y-107122219D02*
X115403006Y-107169838D01*
X115403006Y-107169838D02*
X115450625Y-107217457D01*
X115450625Y-107217457D02*
X115498244Y-107312695D01*
X115498244Y-107312695D02*
X115498244Y-107407933D01*
X115498244Y-107407933D02*
X115450625Y-107550790D01*
X115450625Y-107550790D02*
X114879197Y-108122219D01*
X114879197Y-108122219D02*
X115498244Y-108122219D01*
X115831578Y-107122219D02*
X116450625Y-107122219D01*
X116450625Y-107122219D02*
X116117292Y-107503171D01*
X116117292Y-107503171D02*
X116260149Y-107503171D01*
X116260149Y-107503171D02*
X116355387Y-107550790D01*
X116355387Y-107550790D02*
X116403006Y-107598409D01*
X116403006Y-107598409D02*
X116450625Y-107693647D01*
X116450625Y-107693647D02*
X116450625Y-107931742D01*
X116450625Y-107931742D02*
X116403006Y-108026980D01*
X116403006Y-108026980D02*
X116355387Y-108074600D01*
X116355387Y-108074600D02*
X116260149Y-108122219D01*
X116260149Y-108122219D02*
X115974435Y-108122219D01*
X115974435Y-108122219D02*
X115879197Y-108074600D01*
X115879197Y-108074600D02*
X115831578Y-108026980D01*
X117641102Y-108122219D02*
X117641102Y-107122219D01*
X117641102Y-107122219D02*
X117974435Y-107836504D01*
X117974435Y-107836504D02*
X118307768Y-107122219D01*
X118307768Y-107122219D02*
X118307768Y-108122219D01*
X118736340Y-107836504D02*
X119212530Y-107836504D01*
X118641102Y-108122219D02*
X118974435Y-107122219D01*
X118974435Y-107122219D02*
X119307768Y-108122219D01*
X119545864Y-107122219D02*
X120212530Y-107122219D01*
X120212530Y-107122219D02*
X119545864Y-108122219D01*
X119545864Y-108122219D02*
X120212530Y-108122219D01*
X120593483Y-107598409D02*
X120926816Y-107598409D01*
X121069673Y-108122219D02*
X120593483Y-108122219D01*
X120593483Y-108122219D02*
X120593483Y-107122219D01*
X120593483Y-107122219D02*
X121069673Y-107122219D01*
X122831578Y-108122219D02*
X122498245Y-107646028D01*
X122260150Y-108122219D02*
X122260150Y-107122219D01*
X122260150Y-107122219D02*
X122641102Y-107122219D01*
X122641102Y-107122219D02*
X122736340Y-107169838D01*
X122736340Y-107169838D02*
X122783959Y-107217457D01*
X122783959Y-107217457D02*
X122831578Y-107312695D01*
X122831578Y-107312695D02*
X122831578Y-107455552D01*
X122831578Y-107455552D02*
X122783959Y-107550790D01*
X122783959Y-107550790D02*
X122736340Y-107598409D01*
X122736340Y-107598409D02*
X122641102Y-107646028D01*
X122641102Y-107646028D02*
X122260150Y-107646028D01*
X123260150Y-108122219D02*
X123260150Y-107122219D01*
X123260150Y-107598409D02*
X123831578Y-107598409D01*
X123831578Y-108122219D02*
X123831578Y-107122219D01*
X124260150Y-108074600D02*
X124403007Y-108122219D01*
X124403007Y-108122219D02*
X124641102Y-108122219D01*
X124641102Y-108122219D02*
X124736340Y-108074600D01*
X124736340Y-108074600D02*
X124783959Y-108026980D01*
X124783959Y-108026980D02*
X124831578Y-107931742D01*
X124831578Y-107931742D02*
X124831578Y-107836504D01*
X124831578Y-107836504D02*
X124783959Y-107741266D01*
X124783959Y-107741266D02*
X124736340Y-107693647D01*
X124736340Y-107693647D02*
X124641102Y-107646028D01*
X124641102Y-107646028D02*
X124450626Y-107598409D01*
X124450626Y-107598409D02*
X124355388Y-107550790D01*
X124355388Y-107550790D02*
X124307769Y-107503171D01*
X124307769Y-107503171D02*
X124260150Y-107407933D01*
X124260150Y-107407933D02*
X124260150Y-107312695D01*
X124260150Y-107312695D02*
X124307769Y-107217457D01*
X124307769Y-107217457D02*
X124355388Y-107169838D01*
X124355388Y-107169838D02*
X124450626Y-107122219D01*
X124450626Y-107122219D02*
X124688721Y-107122219D01*
X124688721Y-107122219D02*
X124831578Y-107169838D01*
X109624792Y-106402100D02*
X109839078Y-106473528D01*
X109839078Y-106473528D02*
X110196220Y-106473528D01*
X110196220Y-106473528D02*
X110339078Y-106402100D01*
X110339078Y-106402100D02*
X110410506Y-106330671D01*
X110410506Y-106330671D02*
X110481935Y-106187814D01*
X110481935Y-106187814D02*
X110481935Y-106044957D01*
X110481935Y-106044957D02*
X110410506Y-105902100D01*
X110410506Y-105902100D02*
X110339078Y-105830671D01*
X110339078Y-105830671D02*
X110196220Y-105759242D01*
X110196220Y-105759242D02*
X109910506Y-105687814D01*
X109910506Y-105687814D02*
X109767649Y-105616385D01*
X109767649Y-105616385D02*
X109696220Y-105544957D01*
X109696220Y-105544957D02*
X109624792Y-105402100D01*
X109624792Y-105402100D02*
X109624792Y-105259242D01*
X109624792Y-105259242D02*
X109696220Y-105116385D01*
X109696220Y-105116385D02*
X109767649Y-105044957D01*
X109767649Y-105044957D02*
X109910506Y-104973528D01*
X109910506Y-104973528D02*
X110267649Y-104973528D01*
X110267649Y-104973528D02*
X110481935Y-105044957D01*
X110910506Y-104973528D02*
X111767649Y-104973528D01*
X111339077Y-106473528D02*
X111339077Y-104973528D01*
X112267648Y-106473528D02*
X112267648Y-104973528D01*
X112267648Y-104973528D02*
X112767648Y-106044957D01*
X112767648Y-106044957D02*
X113267648Y-104973528D01*
X113267648Y-104973528D02*
X113267648Y-106473528D01*
X113839077Y-104973528D02*
X114767649Y-104973528D01*
X114767649Y-104973528D02*
X114267649Y-105544957D01*
X114267649Y-105544957D02*
X114481934Y-105544957D01*
X114481934Y-105544957D02*
X114624792Y-105616385D01*
X114624792Y-105616385D02*
X114696220Y-105687814D01*
X114696220Y-105687814D02*
X114767649Y-105830671D01*
X114767649Y-105830671D02*
X114767649Y-106187814D01*
X114767649Y-106187814D02*
X114696220Y-106330671D01*
X114696220Y-106330671D02*
X114624792Y-106402100D01*
X114624792Y-106402100D02*
X114481934Y-106473528D01*
X114481934Y-106473528D02*
X114053363Y-106473528D01*
X114053363Y-106473528D02*
X113910506Y-106402100D01*
X113910506Y-106402100D02*
X113839077Y-106330671D01*
X115339077Y-105116385D02*
X115410505Y-105044957D01*
X115410505Y-105044957D02*
X115553363Y-104973528D01*
X115553363Y-104973528D02*
X115910505Y-104973528D01*
X115910505Y-104973528D02*
X116053363Y-105044957D01*
X116053363Y-105044957D02*
X116124791Y-105116385D01*
X116124791Y-105116385D02*
X116196220Y-105259242D01*
X116196220Y-105259242D02*
X116196220Y-105402100D01*
X116196220Y-105402100D02*
X116124791Y-105616385D01*
X116124791Y-105616385D02*
X115267648Y-106473528D01*
X115267648Y-106473528D02*
X116196220Y-106473528D01*
X117624791Y-105044957D02*
X117481934Y-104973528D01*
X117481934Y-104973528D02*
X117267648Y-104973528D01*
X117267648Y-104973528D02*
X117053362Y-105044957D01*
X117053362Y-105044957D02*
X116910505Y-105187814D01*
X116910505Y-105187814D02*
X116839076Y-105330671D01*
X116839076Y-105330671D02*
X116767648Y-105616385D01*
X116767648Y-105616385D02*
X116767648Y-105830671D01*
X116767648Y-105830671D02*
X116839076Y-106116385D01*
X116839076Y-106116385D02*
X116910505Y-106259242D01*
X116910505Y-106259242D02*
X117053362Y-106402100D01*
X117053362Y-106402100D02*
X117267648Y-106473528D01*
X117267648Y-106473528D02*
X117410505Y-106473528D01*
X117410505Y-106473528D02*
X117624791Y-106402100D01*
X117624791Y-106402100D02*
X117696219Y-106330671D01*
X117696219Y-106330671D02*
X117696219Y-105830671D01*
X117696219Y-105830671D02*
X117410505Y-105830671D01*
X118981934Y-105473528D02*
X118981934Y-106473528D01*
X118624791Y-104902100D02*
X118267648Y-105973528D01*
X118267648Y-105973528D02*
X119196219Y-105973528D01*
X120767647Y-105473528D02*
X121124790Y-106473528D01*
X121124790Y-106473528D02*
X121481933Y-105473528D01*
X122839076Y-106473528D02*
X121981933Y-106473528D01*
X122410504Y-106473528D02*
X122410504Y-104973528D01*
X122410504Y-104973528D02*
X122267647Y-105187814D01*
X122267647Y-105187814D02*
X122124790Y-105330671D01*
X122124790Y-105330671D02*
X121981933Y-105402100D01*
X123481932Y-106330671D02*
X123553361Y-106402100D01*
X123553361Y-106402100D02*
X123481932Y-106473528D01*
X123481932Y-106473528D02*
X123410504Y-106402100D01*
X123410504Y-106402100D02*
X123481932Y-106330671D01*
X123481932Y-106330671D02*
X123481932Y-106473528D01*
X124481933Y-104973528D02*
X124624790Y-104973528D01*
X124624790Y-104973528D02*
X124767647Y-105044957D01*
X124767647Y-105044957D02*
X124839076Y-105116385D01*
X124839076Y-105116385D02*
X124910504Y-105259242D01*
X124910504Y-105259242D02*
X124981933Y-105544957D01*
X124981933Y-105544957D02*
X124981933Y-105902100D01*
X124981933Y-105902100D02*
X124910504Y-106187814D01*
X124910504Y-106187814D02*
X124839076Y-106330671D01*
X124839076Y-106330671D02*
X124767647Y-106402100D01*
X124767647Y-106402100D02*
X124624790Y-106473528D01*
X124624790Y-106473528D02*
X124481933Y-106473528D01*
X124481933Y-106473528D02*
X124339076Y-106402100D01*
X124339076Y-106402100D02*
X124267647Y-106330671D01*
X124267647Y-106330671D02*
X124196218Y-106187814D01*
X124196218Y-106187814D02*
X124124790Y-105902100D01*
X124124790Y-105902100D02*
X124124790Y-105544957D01*
X124124790Y-105544957D02*
X124196218Y-105259242D01*
X124196218Y-105259242D02*
X124267647Y-105116385D01*
X124267647Y-105116385D02*
X124339076Y-105044957D01*
X124339076Y-105044957D02*
X124481933Y-104973528D01*
X79367054Y-92199600D02*
X79509911Y-92247219D01*
X79509911Y-92247219D02*
X79748006Y-92247219D01*
X79748006Y-92247219D02*
X79843244Y-92199600D01*
X79843244Y-92199600D02*
X79890863Y-92151980D01*
X79890863Y-92151980D02*
X79938482Y-92056742D01*
X79938482Y-92056742D02*
X79938482Y-91961504D01*
X79938482Y-91961504D02*
X79890863Y-91866266D01*
X79890863Y-91866266D02*
X79843244Y-91818647D01*
X79843244Y-91818647D02*
X79748006Y-91771028D01*
X79748006Y-91771028D02*
X79557530Y-91723409D01*
X79557530Y-91723409D02*
X79462292Y-91675790D01*
X79462292Y-91675790D02*
X79414673Y-91628171D01*
X79414673Y-91628171D02*
X79367054Y-91532933D01*
X79367054Y-91532933D02*
X79367054Y-91437695D01*
X79367054Y-91437695D02*
X79414673Y-91342457D01*
X79414673Y-91342457D02*
X79462292Y-91294838D01*
X79462292Y-91294838D02*
X79557530Y-91247219D01*
X79557530Y-91247219D02*
X79795625Y-91247219D01*
X79795625Y-91247219D02*
X79938482Y-91294838D01*
X80271816Y-91247219D02*
X80509911Y-92247219D01*
X80509911Y-92247219D02*
X80700387Y-91532933D01*
X80700387Y-91532933D02*
X80890863Y-92247219D01*
X80890863Y-92247219D02*
X81128959Y-91247219D01*
X81509911Y-92247219D02*
X81509911Y-91247219D01*
X81509911Y-91247219D02*
X81748006Y-91247219D01*
X81748006Y-91247219D02*
X81890863Y-91294838D01*
X81890863Y-91294838D02*
X81986101Y-91390076D01*
X81986101Y-91390076D02*
X82033720Y-91485314D01*
X82033720Y-91485314D02*
X82081339Y-91675790D01*
X82081339Y-91675790D02*
X82081339Y-91818647D01*
X82081339Y-91818647D02*
X82033720Y-92009123D01*
X82033720Y-92009123D02*
X81986101Y-92104361D01*
X81986101Y-92104361D02*
X81890863Y-92199600D01*
X81890863Y-92199600D02*
X81748006Y-92247219D01*
X81748006Y-92247219D02*
X81509911Y-92247219D01*
X86542530Y-105010790D02*
X86447292Y-104963171D01*
X86447292Y-104963171D02*
X86399673Y-104915552D01*
X86399673Y-104915552D02*
X86352054Y-104820314D01*
X86352054Y-104820314D02*
X86352054Y-104772695D01*
X86352054Y-104772695D02*
X86399673Y-104677457D01*
X86399673Y-104677457D02*
X86447292Y-104629838D01*
X86447292Y-104629838D02*
X86542530Y-104582219D01*
X86542530Y-104582219D02*
X86733006Y-104582219D01*
X86733006Y-104582219D02*
X86828244Y-104629838D01*
X86828244Y-104629838D02*
X86875863Y-104677457D01*
X86875863Y-104677457D02*
X86923482Y-104772695D01*
X86923482Y-104772695D02*
X86923482Y-104820314D01*
X86923482Y-104820314D02*
X86875863Y-104915552D01*
X86875863Y-104915552D02*
X86828244Y-104963171D01*
X86828244Y-104963171D02*
X86733006Y-105010790D01*
X86733006Y-105010790D02*
X86542530Y-105010790D01*
X86542530Y-105010790D02*
X86447292Y-105058409D01*
X86447292Y-105058409D02*
X86399673Y-105106028D01*
X86399673Y-105106028D02*
X86352054Y-105201266D01*
X86352054Y-105201266D02*
X86352054Y-105391742D01*
X86352054Y-105391742D02*
X86399673Y-105486980D01*
X86399673Y-105486980D02*
X86447292Y-105534600D01*
X86447292Y-105534600D02*
X86542530Y-105582219D01*
X86542530Y-105582219D02*
X86733006Y-105582219D01*
X86733006Y-105582219D02*
X86828244Y-105534600D01*
X86828244Y-105534600D02*
X86875863Y-105486980D01*
X86875863Y-105486980D02*
X86923482Y-105391742D01*
X86923482Y-105391742D02*
X86923482Y-105201266D01*
X86923482Y-105201266D02*
X86875863Y-105106028D01*
X86875863Y-105106028D02*
X86828244Y-105058409D01*
X86828244Y-105058409D02*
X86733006Y-105010790D01*
X87352054Y-104915552D02*
X87352054Y-105915552D01*
X87352054Y-104963171D02*
X87447292Y-104915552D01*
X87447292Y-104915552D02*
X87637768Y-104915552D01*
X87637768Y-104915552D02*
X87733006Y-104963171D01*
X87733006Y-104963171D02*
X87780625Y-105010790D01*
X87780625Y-105010790D02*
X87828244Y-105106028D01*
X87828244Y-105106028D02*
X87828244Y-105391742D01*
X87828244Y-105391742D02*
X87780625Y-105486980D01*
X87780625Y-105486980D02*
X87733006Y-105534600D01*
X87733006Y-105534600D02*
X87637768Y-105582219D01*
X87637768Y-105582219D02*
X87447292Y-105582219D01*
X87447292Y-105582219D02*
X87352054Y-105534600D01*
X88590149Y-105058409D02*
X88256816Y-105058409D01*
X88256816Y-105582219D02*
X88256816Y-104582219D01*
X88256816Y-104582219D02*
X88733006Y-104582219D01*
X80719719Y-84331189D02*
X80719719Y-83712142D01*
X80719719Y-83712142D02*
X81100671Y-84045475D01*
X81100671Y-84045475D02*
X81100671Y-83902618D01*
X81100671Y-83902618D02*
X81148290Y-83807380D01*
X81148290Y-83807380D02*
X81195909Y-83759761D01*
X81195909Y-83759761D02*
X81291147Y-83712142D01*
X81291147Y-83712142D02*
X81529242Y-83712142D01*
X81529242Y-83712142D02*
X81624480Y-83759761D01*
X81624480Y-83759761D02*
X81672100Y-83807380D01*
X81672100Y-83807380D02*
X81719719Y-83902618D01*
X81719719Y-83902618D02*
X81719719Y-84188332D01*
X81719719Y-84188332D02*
X81672100Y-84283570D01*
X81672100Y-84283570D02*
X81624480Y-84331189D01*
X81624480Y-83283570D02*
X81672100Y-83235951D01*
X81672100Y-83235951D02*
X81719719Y-83283570D01*
X81719719Y-83283570D02*
X81672100Y-83331189D01*
X81672100Y-83331189D02*
X81624480Y-83283570D01*
X81624480Y-83283570D02*
X81719719Y-83283570D01*
X80719719Y-82902618D02*
X80719719Y-82283571D01*
X80719719Y-82283571D02*
X81100671Y-82616904D01*
X81100671Y-82616904D02*
X81100671Y-82474047D01*
X81100671Y-82474047D02*
X81148290Y-82378809D01*
X81148290Y-82378809D02*
X81195909Y-82331190D01*
X81195909Y-82331190D02*
X81291147Y-82283571D01*
X81291147Y-82283571D02*
X81529242Y-82283571D01*
X81529242Y-82283571D02*
X81624480Y-82331190D01*
X81624480Y-82331190D02*
X81672100Y-82378809D01*
X81672100Y-82378809D02*
X81719719Y-82474047D01*
X81719719Y-82474047D02*
X81719719Y-82759761D01*
X81719719Y-82759761D02*
X81672100Y-82854999D01*
X81672100Y-82854999D02*
X81624480Y-82902618D01*
X80719719Y-81997856D02*
X81719719Y-81664523D01*
X81719719Y-81664523D02*
X80719719Y-81331190D01*
X75004719Y-83870832D02*
X76004719Y-83537499D01*
X76004719Y-83537499D02*
X75004719Y-83204166D01*
X76004719Y-82870832D02*
X75004719Y-82870832D01*
X75004719Y-82870832D02*
X75004719Y-82632737D01*
X75004719Y-82632737D02*
X75052338Y-82489880D01*
X75052338Y-82489880D02*
X75147576Y-82394642D01*
X75147576Y-82394642D02*
X75242814Y-82347023D01*
X75242814Y-82347023D02*
X75433290Y-82299404D01*
X75433290Y-82299404D02*
X75576147Y-82299404D01*
X75576147Y-82299404D02*
X75766623Y-82347023D01*
X75766623Y-82347023D02*
X75861861Y-82394642D01*
X75861861Y-82394642D02*
X75957100Y-82489880D01*
X75957100Y-82489880D02*
X76004719Y-82632737D01*
X76004719Y-82632737D02*
X76004719Y-82870832D01*
X76004719Y-81870832D02*
X75004719Y-81870832D01*
X75004719Y-81870832D02*
X75004719Y-81632737D01*
X75004719Y-81632737D02*
X75052338Y-81489880D01*
X75052338Y-81489880D02*
X75147576Y-81394642D01*
X75147576Y-81394642D02*
X75242814Y-81347023D01*
X75242814Y-81347023D02*
X75433290Y-81299404D01*
X75433290Y-81299404D02*
X75576147Y-81299404D01*
X75576147Y-81299404D02*
X75766623Y-81347023D01*
X75766623Y-81347023D02*
X75861861Y-81394642D01*
X75861861Y-81394642D02*
X75957100Y-81489880D01*
X75957100Y-81489880D02*
X76004719Y-81632737D01*
X76004719Y-81632737D02*
X76004719Y-81870832D01*
X113202338Y-98471517D02*
X113154719Y-98566755D01*
X113154719Y-98566755D02*
X113154719Y-98709612D01*
X113154719Y-98709612D02*
X113202338Y-98852469D01*
X113202338Y-98852469D02*
X113297576Y-98947707D01*
X113297576Y-98947707D02*
X113392814Y-98995326D01*
X113392814Y-98995326D02*
X113583290Y-99042945D01*
X113583290Y-99042945D02*
X113726147Y-99042945D01*
X113726147Y-99042945D02*
X113916623Y-98995326D01*
X113916623Y-98995326D02*
X114011861Y-98947707D01*
X114011861Y-98947707D02*
X114107100Y-98852469D01*
X114107100Y-98852469D02*
X114154719Y-98709612D01*
X114154719Y-98709612D02*
X114154719Y-98614374D01*
X114154719Y-98614374D02*
X114107100Y-98471517D01*
X114107100Y-98471517D02*
X114059480Y-98423898D01*
X114059480Y-98423898D02*
X113726147Y-98423898D01*
X113726147Y-98423898D02*
X113726147Y-98614374D01*
X114154719Y-97995326D02*
X113154719Y-97995326D01*
X113154719Y-97995326D02*
X114154719Y-97423898D01*
X114154719Y-97423898D02*
X113154719Y-97423898D01*
X114154719Y-96947707D02*
X113154719Y-96947707D01*
X113154719Y-96947707D02*
X113154719Y-96709612D01*
X113154719Y-96709612D02*
X113202338Y-96566755D01*
X113202338Y-96566755D02*
X113297576Y-96471517D01*
X113297576Y-96471517D02*
X113392814Y-96423898D01*
X113392814Y-96423898D02*
X113583290Y-96376279D01*
X113583290Y-96376279D02*
X113726147Y-96376279D01*
X113726147Y-96376279D02*
X113916623Y-96423898D01*
X113916623Y-96423898D02*
X114011861Y-96471517D01*
X114011861Y-96471517D02*
X114107100Y-96566755D01*
X114107100Y-96566755D02*
X114154719Y-96709612D01*
X114154719Y-96709612D02*
X114154719Y-96947707D01*
X79864838Y-99106517D02*
X79817219Y-99201755D01*
X79817219Y-99201755D02*
X79817219Y-99344612D01*
X79817219Y-99344612D02*
X79864838Y-99487469D01*
X79864838Y-99487469D02*
X79960076Y-99582707D01*
X79960076Y-99582707D02*
X80055314Y-99630326D01*
X80055314Y-99630326D02*
X80245790Y-99677945D01*
X80245790Y-99677945D02*
X80388647Y-99677945D01*
X80388647Y-99677945D02*
X80579123Y-99630326D01*
X80579123Y-99630326D02*
X80674361Y-99582707D01*
X80674361Y-99582707D02*
X80769600Y-99487469D01*
X80769600Y-99487469D02*
X80817219Y-99344612D01*
X80817219Y-99344612D02*
X80817219Y-99249374D01*
X80817219Y-99249374D02*
X80769600Y-99106517D01*
X80769600Y-99106517D02*
X80721980Y-99058898D01*
X80721980Y-99058898D02*
X80388647Y-99058898D01*
X80388647Y-99058898D02*
X80388647Y-99249374D01*
X80817219Y-98630326D02*
X79817219Y-98630326D01*
X79817219Y-98630326D02*
X80817219Y-98058898D01*
X80817219Y-98058898D02*
X79817219Y-98058898D01*
X80817219Y-97582707D02*
X79817219Y-97582707D01*
X79817219Y-97582707D02*
X79817219Y-97344612D01*
X79817219Y-97344612D02*
X79864838Y-97201755D01*
X79864838Y-97201755D02*
X79960076Y-97106517D01*
X79960076Y-97106517D02*
X80055314Y-97058898D01*
X80055314Y-97058898D02*
X80245790Y-97011279D01*
X80245790Y-97011279D02*
X80388647Y-97011279D01*
X80388647Y-97011279D02*
X80579123Y-97058898D01*
X80579123Y-97058898D02*
X80674361Y-97106517D01*
X80674361Y-97106517D02*
X80769600Y-97201755D01*
X80769600Y-97201755D02*
X80817219Y-97344612D01*
X80817219Y-97344612D02*
X80817219Y-97582707D01*
X82357219Y-99725564D02*
X82357219Y-99106517D01*
X82357219Y-99106517D02*
X82738171Y-99439850D01*
X82738171Y-99439850D02*
X82738171Y-99296993D01*
X82738171Y-99296993D02*
X82785790Y-99201755D01*
X82785790Y-99201755D02*
X82833409Y-99154136D01*
X82833409Y-99154136D02*
X82928647Y-99106517D01*
X82928647Y-99106517D02*
X83166742Y-99106517D01*
X83166742Y-99106517D02*
X83261980Y-99154136D01*
X83261980Y-99154136D02*
X83309600Y-99201755D01*
X83309600Y-99201755D02*
X83357219Y-99296993D01*
X83357219Y-99296993D02*
X83357219Y-99582707D01*
X83357219Y-99582707D02*
X83309600Y-99677945D01*
X83309600Y-99677945D02*
X83261980Y-99725564D01*
X83261980Y-98677945D02*
X83309600Y-98630326D01*
X83309600Y-98630326D02*
X83357219Y-98677945D01*
X83357219Y-98677945D02*
X83309600Y-98725564D01*
X83309600Y-98725564D02*
X83261980Y-98677945D01*
X83261980Y-98677945D02*
X83357219Y-98677945D01*
X82357219Y-98296993D02*
X82357219Y-97677946D01*
X82357219Y-97677946D02*
X82738171Y-98011279D01*
X82738171Y-98011279D02*
X82738171Y-97868422D01*
X82738171Y-97868422D02*
X82785790Y-97773184D01*
X82785790Y-97773184D02*
X82833409Y-97725565D01*
X82833409Y-97725565D02*
X82928647Y-97677946D01*
X82928647Y-97677946D02*
X83166742Y-97677946D01*
X83166742Y-97677946D02*
X83261980Y-97725565D01*
X83261980Y-97725565D02*
X83309600Y-97773184D01*
X83309600Y-97773184D02*
X83357219Y-97868422D01*
X83357219Y-97868422D02*
X83357219Y-98154136D01*
X83357219Y-98154136D02*
X83309600Y-98249374D01*
X83309600Y-98249374D02*
X83261980Y-98296993D01*
X82357219Y-97392231D02*
X83357219Y-97058898D01*
X83357219Y-97058898D02*
X82357219Y-96725565D01*
X107640387Y-109344719D02*
X107640387Y-110059004D01*
X107640387Y-110059004D02*
X107592768Y-110201861D01*
X107592768Y-110201861D02*
X107497530Y-110297100D01*
X107497530Y-110297100D02*
X107354673Y-110344719D01*
X107354673Y-110344719D02*
X107259435Y-110344719D01*
X108116578Y-110344719D02*
X108116578Y-109344719D01*
X108116578Y-109344719D02*
X108497530Y-109344719D01*
X108497530Y-109344719D02*
X108592768Y-109392338D01*
X108592768Y-109392338D02*
X108640387Y-109439957D01*
X108640387Y-109439957D02*
X108688006Y-109535195D01*
X108688006Y-109535195D02*
X108688006Y-109678052D01*
X108688006Y-109678052D02*
X108640387Y-109773290D01*
X108640387Y-109773290D02*
X108592768Y-109820909D01*
X108592768Y-109820909D02*
X108497530Y-109868528D01*
X108497530Y-109868528D02*
X108116578Y-109868528D01*
X109021340Y-109344719D02*
X109640387Y-109344719D01*
X109640387Y-109344719D02*
X109307054Y-109725671D01*
X109307054Y-109725671D02*
X109449911Y-109725671D01*
X109449911Y-109725671D02*
X109545149Y-109773290D01*
X109545149Y-109773290D02*
X109592768Y-109820909D01*
X109592768Y-109820909D02*
X109640387Y-109916147D01*
X109640387Y-109916147D02*
X109640387Y-110154242D01*
X109640387Y-110154242D02*
X109592768Y-110249480D01*
X109592768Y-110249480D02*
X109545149Y-110297100D01*
X109545149Y-110297100D02*
X109449911Y-110344719D01*
X109449911Y-110344719D02*
X109164197Y-110344719D01*
X109164197Y-110344719D02*
X109068959Y-110297100D01*
X109068959Y-110297100D02*
X109021340Y-110249480D01*
X110386816Y-109344719D02*
X110958244Y-109344719D01*
X110672530Y-110344719D02*
X110672530Y-109344719D01*
X111196340Y-109344719D02*
X111863006Y-110344719D01*
X111863006Y-109344719D02*
X111196340Y-110344719D01*
X113275982Y-109392338D02*
X113180744Y-109344719D01*
X113180744Y-109344719D02*
X113037887Y-109344719D01*
X113037887Y-109344719D02*
X112895030Y-109392338D01*
X112895030Y-109392338D02*
X112799792Y-109487576D01*
X112799792Y-109487576D02*
X112752173Y-109582814D01*
X112752173Y-109582814D02*
X112704554Y-109773290D01*
X112704554Y-109773290D02*
X112704554Y-109916147D01*
X112704554Y-109916147D02*
X112752173Y-110106623D01*
X112752173Y-110106623D02*
X112799792Y-110201861D01*
X112799792Y-110201861D02*
X112895030Y-110297100D01*
X112895030Y-110297100D02*
X113037887Y-110344719D01*
X113037887Y-110344719D02*
X113133125Y-110344719D01*
X113133125Y-110344719D02*
X113275982Y-110297100D01*
X113275982Y-110297100D02*
X113323601Y-110249480D01*
X113323601Y-110249480D02*
X113323601Y-109916147D01*
X113323601Y-109916147D02*
X113133125Y-109916147D01*
X113752173Y-110344719D02*
X113752173Y-109344719D01*
X113752173Y-109344719D02*
X114323601Y-110344719D01*
X114323601Y-110344719D02*
X114323601Y-109344719D01*
X114799792Y-110344719D02*
X114799792Y-109344719D01*
X114799792Y-109344719D02*
X115037887Y-109344719D01*
X115037887Y-109344719D02*
X115180744Y-109392338D01*
X115180744Y-109392338D02*
X115275982Y-109487576D01*
X115275982Y-109487576D02*
X115323601Y-109582814D01*
X115323601Y-109582814D02*
X115371220Y-109773290D01*
X115371220Y-109773290D02*
X115371220Y-109916147D01*
X115371220Y-109916147D02*
X115323601Y-110106623D01*
X115323601Y-110106623D02*
X115275982Y-110201861D01*
X115275982Y-110201861D02*
X115180744Y-110297100D01*
X115180744Y-110297100D02*
X115037887Y-110344719D01*
X115037887Y-110344719D02*
X114799792Y-110344719D01*
X116816101Y-110344719D02*
X116482768Y-109868528D01*
X116244673Y-110344719D02*
X116244673Y-109344719D01*
X116244673Y-109344719D02*
X116625625Y-109344719D01*
X116625625Y-109344719D02*
X116720863Y-109392338D01*
X116720863Y-109392338D02*
X116768482Y-109439957D01*
X116768482Y-109439957D02*
X116816101Y-109535195D01*
X116816101Y-109535195D02*
X116816101Y-109678052D01*
X116816101Y-109678052D02*
X116768482Y-109773290D01*
X116768482Y-109773290D02*
X116720863Y-109820909D01*
X116720863Y-109820909D02*
X116625625Y-109868528D01*
X116625625Y-109868528D02*
X116244673Y-109868528D01*
X117149435Y-109344719D02*
X117816101Y-110344719D01*
X117816101Y-109344719D02*
X117149435Y-110344719D01*
X115456504Y-99042945D02*
X115456504Y-98566755D01*
X115742219Y-99138183D02*
X114742219Y-98804850D01*
X114742219Y-98804850D02*
X115742219Y-98471517D01*
X114789838Y-97614374D02*
X114742219Y-97709612D01*
X114742219Y-97709612D02*
X114742219Y-97852469D01*
X114742219Y-97852469D02*
X114789838Y-97995326D01*
X114789838Y-97995326D02*
X114885076Y-98090564D01*
X114885076Y-98090564D02*
X114980314Y-98138183D01*
X114980314Y-98138183D02*
X115170790Y-98185802D01*
X115170790Y-98185802D02*
X115313647Y-98185802D01*
X115313647Y-98185802D02*
X115504123Y-98138183D01*
X115504123Y-98138183D02*
X115599361Y-98090564D01*
X115599361Y-98090564D02*
X115694600Y-97995326D01*
X115694600Y-97995326D02*
X115742219Y-97852469D01*
X115742219Y-97852469D02*
X115742219Y-97757231D01*
X115742219Y-97757231D02*
X115694600Y-97614374D01*
X115694600Y-97614374D02*
X115646980Y-97566755D01*
X115646980Y-97566755D02*
X115313647Y-97566755D01*
X115313647Y-97566755D02*
X115313647Y-97757231D01*
X115742219Y-97138183D02*
X114742219Y-97138183D01*
X114742219Y-97138183D02*
X115742219Y-96566755D01*
X115742219Y-96566755D02*
X114742219Y-96566755D01*
X115742219Y-96090564D02*
X114742219Y-96090564D01*
X114742219Y-96090564D02*
X114742219Y-95852469D01*
X114742219Y-95852469D02*
X114789838Y-95709612D01*
X114789838Y-95709612D02*
X114885076Y-95614374D01*
X114885076Y-95614374D02*
X114980314Y-95566755D01*
X114980314Y-95566755D02*
X115170790Y-95519136D01*
X115170790Y-95519136D02*
X115313647Y-95519136D01*
X115313647Y-95519136D02*
X115504123Y-95566755D01*
X115504123Y-95566755D02*
X115599361Y-95614374D01*
X115599361Y-95614374D02*
X115694600Y-95709612D01*
X115694600Y-95709612D02*
X115742219Y-95852469D01*
X115742219Y-95852469D02*
X115742219Y-96090564D01*
X84510506Y-101248409D02*
X84653363Y-101296028D01*
X84653363Y-101296028D02*
X84700982Y-101343647D01*
X84700982Y-101343647D02*
X84748601Y-101438885D01*
X84748601Y-101438885D02*
X84748601Y-101581742D01*
X84748601Y-101581742D02*
X84700982Y-101676980D01*
X84700982Y-101676980D02*
X84653363Y-101724600D01*
X84653363Y-101724600D02*
X84558125Y-101772219D01*
X84558125Y-101772219D02*
X84177173Y-101772219D01*
X84177173Y-101772219D02*
X84177173Y-100772219D01*
X84177173Y-100772219D02*
X84510506Y-100772219D01*
X84510506Y-100772219D02*
X84605744Y-100819838D01*
X84605744Y-100819838D02*
X84653363Y-100867457D01*
X84653363Y-100867457D02*
X84700982Y-100962695D01*
X84700982Y-100962695D02*
X84700982Y-101057933D01*
X84700982Y-101057933D02*
X84653363Y-101153171D01*
X84653363Y-101153171D02*
X84605744Y-101200790D01*
X84605744Y-101200790D02*
X84510506Y-101248409D01*
X84510506Y-101248409D02*
X84177173Y-101248409D01*
X85367649Y-100772219D02*
X85558125Y-100772219D01*
X85558125Y-100772219D02*
X85653363Y-100819838D01*
X85653363Y-100819838D02*
X85748601Y-100915076D01*
X85748601Y-100915076D02*
X85796220Y-101105552D01*
X85796220Y-101105552D02*
X85796220Y-101438885D01*
X85796220Y-101438885D02*
X85748601Y-101629361D01*
X85748601Y-101629361D02*
X85653363Y-101724600D01*
X85653363Y-101724600D02*
X85558125Y-101772219D01*
X85558125Y-101772219D02*
X85367649Y-101772219D01*
X85367649Y-101772219D02*
X85272411Y-101724600D01*
X85272411Y-101724600D02*
X85177173Y-101629361D01*
X85177173Y-101629361D02*
X85129554Y-101438885D01*
X85129554Y-101438885D02*
X85129554Y-101105552D01*
X85129554Y-101105552D02*
X85177173Y-100915076D01*
X85177173Y-100915076D02*
X85272411Y-100819838D01*
X85272411Y-100819838D02*
X85367649Y-100772219D01*
X86415268Y-100772219D02*
X86605744Y-100772219D01*
X86605744Y-100772219D02*
X86700982Y-100819838D01*
X86700982Y-100819838D02*
X86796220Y-100915076D01*
X86796220Y-100915076D02*
X86843839Y-101105552D01*
X86843839Y-101105552D02*
X86843839Y-101438885D01*
X86843839Y-101438885D02*
X86796220Y-101629361D01*
X86796220Y-101629361D02*
X86700982Y-101724600D01*
X86700982Y-101724600D02*
X86605744Y-101772219D01*
X86605744Y-101772219D02*
X86415268Y-101772219D01*
X86415268Y-101772219D02*
X86320030Y-101724600D01*
X86320030Y-101724600D02*
X86224792Y-101629361D01*
X86224792Y-101629361D02*
X86177173Y-101438885D01*
X86177173Y-101438885D02*
X86177173Y-101105552D01*
X86177173Y-101105552D02*
X86224792Y-100915076D01*
X86224792Y-100915076D02*
X86320030Y-100819838D01*
X86320030Y-100819838D02*
X86415268Y-100772219D01*
X87129554Y-100772219D02*
X87700982Y-100772219D01*
X87415268Y-101772219D02*
X87415268Y-100772219D01*
X88224792Y-100772219D02*
X88320030Y-100772219D01*
X88320030Y-100772219D02*
X88415268Y-100819838D01*
X88415268Y-100819838D02*
X88462887Y-100867457D01*
X88462887Y-100867457D02*
X88510506Y-100962695D01*
X88510506Y-100962695D02*
X88558125Y-101153171D01*
X88558125Y-101153171D02*
X88558125Y-101391266D01*
X88558125Y-101391266D02*
X88510506Y-101581742D01*
X88510506Y-101581742D02*
X88462887Y-101676980D01*
X88462887Y-101676980D02*
X88415268Y-101724600D01*
X88415268Y-101724600D02*
X88320030Y-101772219D01*
X88320030Y-101772219D02*
X88224792Y-101772219D01*
X88224792Y-101772219D02*
X88129554Y-101724600D01*
X88129554Y-101724600D02*
X88081935Y-101676980D01*
X88081935Y-101676980D02*
X88034316Y-101581742D01*
X88034316Y-101581742D02*
X87986697Y-101391266D01*
X87986697Y-101391266D02*
X87986697Y-101153171D01*
X87986697Y-101153171D02*
X88034316Y-100962695D01*
X88034316Y-100962695D02*
X88081935Y-100867457D01*
X88081935Y-100867457D02*
X88129554Y-100819838D01*
X88129554Y-100819838D02*
X88224792Y-100772219D01*
X122594673Y-87421266D02*
X123356578Y-87421266D01*
X122975625Y-87802219D02*
X122975625Y-87040314D01*
X102592173Y-111233766D02*
X103354078Y-111233766D01*
X102973125Y-111614719D02*
X102973125Y-110852814D01*
X101115744Y-114123052D02*
X101115744Y-114789719D01*
X100877649Y-113742100D02*
X100639554Y-114456385D01*
X100639554Y-114456385D02*
X101258601Y-114456385D01*
X101639554Y-114694480D02*
X101687173Y-114742100D01*
X101687173Y-114742100D02*
X101639554Y-114789719D01*
X101639554Y-114789719D02*
X101591935Y-114742100D01*
X101591935Y-114742100D02*
X101639554Y-114694480D01*
X101639554Y-114694480D02*
X101639554Y-114789719D01*
X102020506Y-113789719D02*
X102687172Y-113789719D01*
X102687172Y-113789719D02*
X102258601Y-114789719D01*
X103496696Y-114123052D02*
X103496696Y-114789719D01*
X103068125Y-114123052D02*
X103068125Y-114646861D01*
X103068125Y-114646861D02*
X103115744Y-114742100D01*
X103115744Y-114742100D02*
X103210982Y-114789719D01*
X103210982Y-114789719D02*
X103353839Y-114789719D01*
X103353839Y-114789719D02*
X103449077Y-114742100D01*
X103449077Y-114742100D02*
X103496696Y-114694480D01*
X104306220Y-114265909D02*
X103972887Y-114265909D01*
X103972887Y-114789719D02*
X103972887Y-113789719D01*
X103972887Y-113789719D02*
X104449077Y-113789719D01*
X75795149Y-98867219D02*
X75890387Y-98867219D01*
X75890387Y-98867219D02*
X75985625Y-98914838D01*
X75985625Y-98914838D02*
X76033244Y-98962457D01*
X76033244Y-98962457D02*
X76080863Y-99057695D01*
X76080863Y-99057695D02*
X76128482Y-99248171D01*
X76128482Y-99248171D02*
X76128482Y-99486266D01*
X76128482Y-99486266D02*
X76080863Y-99676742D01*
X76080863Y-99676742D02*
X76033244Y-99771980D01*
X76033244Y-99771980D02*
X75985625Y-99819600D01*
X75985625Y-99819600D02*
X75890387Y-99867219D01*
X75890387Y-99867219D02*
X75795149Y-99867219D01*
X75795149Y-99867219D02*
X75699911Y-99819600D01*
X75699911Y-99819600D02*
X75652292Y-99771980D01*
X75652292Y-99771980D02*
X75604673Y-99676742D01*
X75604673Y-99676742D02*
X75557054Y-99486266D01*
X75557054Y-99486266D02*
X75557054Y-99248171D01*
X75557054Y-99248171D02*
X75604673Y-99057695D01*
X75604673Y-99057695D02*
X75652292Y-98962457D01*
X75652292Y-98962457D02*
X75699911Y-98914838D01*
X75699911Y-98914838D02*
X75795149Y-98867219D01*
X76557054Y-99771980D02*
X76604673Y-99819600D01*
X76604673Y-99819600D02*
X76557054Y-99867219D01*
X76557054Y-99867219D02*
X76509435Y-99819600D01*
X76509435Y-99819600D02*
X76557054Y-99771980D01*
X76557054Y-99771980D02*
X76557054Y-99867219D01*
X77557053Y-99867219D02*
X76985625Y-99867219D01*
X77271339Y-99867219D02*
X77271339Y-98867219D01*
X77271339Y-98867219D02*
X77176101Y-99010076D01*
X77176101Y-99010076D02*
X77080863Y-99105314D01*
X77080863Y-99105314D02*
X76985625Y-99152933D01*
X78414196Y-99200552D02*
X78414196Y-99867219D01*
X77985625Y-99200552D02*
X77985625Y-99724361D01*
X77985625Y-99724361D02*
X78033244Y-99819600D01*
X78033244Y-99819600D02*
X78128482Y-99867219D01*
X78128482Y-99867219D02*
X78271339Y-99867219D01*
X78271339Y-99867219D02*
X78366577Y-99819600D01*
X78366577Y-99819600D02*
X78414196Y-99771980D01*
X79223720Y-99343409D02*
X78890387Y-99343409D01*
X78890387Y-99867219D02*
X78890387Y-98867219D01*
X78890387Y-98867219D02*
X79366577Y-98867219D01*
X121425552Y-90946755D02*
X122092219Y-90946755D01*
X121044600Y-91184850D02*
X121758885Y-91422945D01*
X121758885Y-91422945D02*
X121758885Y-90803898D01*
X121996980Y-90422945D02*
X122044600Y-90375326D01*
X122044600Y-90375326D02*
X122092219Y-90422945D01*
X122092219Y-90422945D02*
X122044600Y-90470564D01*
X122044600Y-90470564D02*
X121996980Y-90422945D01*
X121996980Y-90422945D02*
X122092219Y-90422945D01*
X121092219Y-90041993D02*
X121092219Y-89375327D01*
X121092219Y-89375327D02*
X122092219Y-89803898D01*
X121425552Y-88565803D02*
X122092219Y-88565803D01*
X121425552Y-88994374D02*
X121949361Y-88994374D01*
X121949361Y-88994374D02*
X122044600Y-88946755D01*
X122044600Y-88946755D02*
X122092219Y-88851517D01*
X122092219Y-88851517D02*
X122092219Y-88708660D01*
X122092219Y-88708660D02*
X122044600Y-88613422D01*
X122044600Y-88613422D02*
X121996980Y-88565803D01*
X121568409Y-87756279D02*
X121568409Y-88089612D01*
X122092219Y-88089612D02*
X121092219Y-88089612D01*
X121092219Y-88089612D02*
X121092219Y-87613422D01*
X90659838Y-91169017D02*
X90612219Y-91264255D01*
X90612219Y-91264255D02*
X90612219Y-91407112D01*
X90612219Y-91407112D02*
X90659838Y-91549969D01*
X90659838Y-91549969D02*
X90755076Y-91645207D01*
X90755076Y-91645207D02*
X90850314Y-91692826D01*
X90850314Y-91692826D02*
X91040790Y-91740445D01*
X91040790Y-91740445D02*
X91183647Y-91740445D01*
X91183647Y-91740445D02*
X91374123Y-91692826D01*
X91374123Y-91692826D02*
X91469361Y-91645207D01*
X91469361Y-91645207D02*
X91564600Y-91549969D01*
X91564600Y-91549969D02*
X91612219Y-91407112D01*
X91612219Y-91407112D02*
X91612219Y-91311874D01*
X91612219Y-91311874D02*
X91564600Y-91169017D01*
X91564600Y-91169017D02*
X91516980Y-91121398D01*
X91516980Y-91121398D02*
X91183647Y-91121398D01*
X91183647Y-91121398D02*
X91183647Y-91311874D01*
X91612219Y-90692826D02*
X90612219Y-90692826D01*
X90612219Y-90692826D02*
X91612219Y-90121398D01*
X91612219Y-90121398D02*
X90612219Y-90121398D01*
X91612219Y-89645207D02*
X90612219Y-89645207D01*
X90612219Y-89645207D02*
X90612219Y-89407112D01*
X90612219Y-89407112D02*
X90659838Y-89264255D01*
X90659838Y-89264255D02*
X90755076Y-89169017D01*
X90755076Y-89169017D02*
X90850314Y-89121398D01*
X90850314Y-89121398D02*
X91040790Y-89073779D01*
X91040790Y-89073779D02*
X91183647Y-89073779D01*
X91183647Y-89073779D02*
X91374123Y-89121398D01*
X91374123Y-89121398D02*
X91469361Y-89169017D01*
X91469361Y-89169017D02*
X91564600Y-89264255D01*
X91564600Y-89264255D02*
X91612219Y-89407112D01*
X91612219Y-89407112D02*
X91612219Y-89645207D01*
X94152219Y-90803898D02*
X93676028Y-91137231D01*
X94152219Y-91375326D02*
X93152219Y-91375326D01*
X93152219Y-91375326D02*
X93152219Y-90994374D01*
X93152219Y-90994374D02*
X93199838Y-90899136D01*
X93199838Y-90899136D02*
X93247457Y-90851517D01*
X93247457Y-90851517D02*
X93342695Y-90803898D01*
X93342695Y-90803898D02*
X93485552Y-90803898D01*
X93485552Y-90803898D02*
X93580790Y-90851517D01*
X93580790Y-90851517D02*
X93628409Y-90899136D01*
X93628409Y-90899136D02*
X93676028Y-90994374D01*
X93676028Y-90994374D02*
X93676028Y-91375326D01*
X94104600Y-90422945D02*
X94152219Y-90280088D01*
X94152219Y-90280088D02*
X94152219Y-90041993D01*
X94152219Y-90041993D02*
X94104600Y-89946755D01*
X94104600Y-89946755D02*
X94056980Y-89899136D01*
X94056980Y-89899136D02*
X93961742Y-89851517D01*
X93961742Y-89851517D02*
X93866504Y-89851517D01*
X93866504Y-89851517D02*
X93771266Y-89899136D01*
X93771266Y-89899136D02*
X93723647Y-89946755D01*
X93723647Y-89946755D02*
X93676028Y-90041993D01*
X93676028Y-90041993D02*
X93628409Y-90232469D01*
X93628409Y-90232469D02*
X93580790Y-90327707D01*
X93580790Y-90327707D02*
X93533171Y-90375326D01*
X93533171Y-90375326D02*
X93437933Y-90422945D01*
X93437933Y-90422945D02*
X93342695Y-90422945D01*
X93342695Y-90422945D02*
X93247457Y-90375326D01*
X93247457Y-90375326D02*
X93199838Y-90327707D01*
X93199838Y-90327707D02*
X93152219Y-90232469D01*
X93152219Y-90232469D02*
X93152219Y-89994374D01*
X93152219Y-89994374D02*
X93199838Y-89851517D01*
X93152219Y-89565802D02*
X93152219Y-88994374D01*
X94152219Y-89280088D02*
X93152219Y-89280088D01*
X93972054Y-85532100D02*
X94114911Y-85579719D01*
X94114911Y-85579719D02*
X94353006Y-85579719D01*
X94353006Y-85579719D02*
X94448244Y-85532100D01*
X94448244Y-85532100D02*
X94495863Y-85484480D01*
X94495863Y-85484480D02*
X94543482Y-85389242D01*
X94543482Y-85389242D02*
X94543482Y-85294004D01*
X94543482Y-85294004D02*
X94495863Y-85198766D01*
X94495863Y-85198766D02*
X94448244Y-85151147D01*
X94448244Y-85151147D02*
X94353006Y-85103528D01*
X94353006Y-85103528D02*
X94162530Y-85055909D01*
X94162530Y-85055909D02*
X94067292Y-85008290D01*
X94067292Y-85008290D02*
X94019673Y-84960671D01*
X94019673Y-84960671D02*
X93972054Y-84865433D01*
X93972054Y-84865433D02*
X93972054Y-84770195D01*
X93972054Y-84770195D02*
X94019673Y-84674957D01*
X94019673Y-84674957D02*
X94067292Y-84627338D01*
X94067292Y-84627338D02*
X94162530Y-84579719D01*
X94162530Y-84579719D02*
X94400625Y-84579719D01*
X94400625Y-84579719D02*
X94543482Y-84627338D01*
X94876816Y-84579719D02*
X95114911Y-85579719D01*
X95114911Y-85579719D02*
X95305387Y-84865433D01*
X95305387Y-84865433D02*
X95495863Y-85579719D01*
X95495863Y-85579719D02*
X95733959Y-84579719D01*
X96305387Y-84579719D02*
X96495863Y-84579719D01*
X96495863Y-84579719D02*
X96591101Y-84627338D01*
X96591101Y-84627338D02*
X96686339Y-84722576D01*
X96686339Y-84722576D02*
X96733958Y-84913052D01*
X96733958Y-84913052D02*
X96733958Y-85246385D01*
X96733958Y-85246385D02*
X96686339Y-85436861D01*
X96686339Y-85436861D02*
X96591101Y-85532100D01*
X96591101Y-85532100D02*
X96495863Y-85579719D01*
X96495863Y-85579719D02*
X96305387Y-85579719D01*
X96305387Y-85579719D02*
X96210149Y-85532100D01*
X96210149Y-85532100D02*
X96114911Y-85436861D01*
X96114911Y-85436861D02*
X96067292Y-85246385D01*
X96067292Y-85246385D02*
X96067292Y-84913052D01*
X96067292Y-84913052D02*
X96114911Y-84722576D01*
X96114911Y-84722576D02*
X96210149Y-84627338D01*
X96210149Y-84627338D02*
X96305387Y-84579719D01*
X98083601Y-85484480D02*
X98035982Y-85532100D01*
X98035982Y-85532100D02*
X97893125Y-85579719D01*
X97893125Y-85579719D02*
X97797887Y-85579719D01*
X97797887Y-85579719D02*
X97655030Y-85532100D01*
X97655030Y-85532100D02*
X97559792Y-85436861D01*
X97559792Y-85436861D02*
X97512173Y-85341623D01*
X97512173Y-85341623D02*
X97464554Y-85151147D01*
X97464554Y-85151147D02*
X97464554Y-85008290D01*
X97464554Y-85008290D02*
X97512173Y-84817814D01*
X97512173Y-84817814D02*
X97559792Y-84722576D01*
X97559792Y-84722576D02*
X97655030Y-84627338D01*
X97655030Y-84627338D02*
X97797887Y-84579719D01*
X97797887Y-84579719D02*
X97893125Y-84579719D01*
X97893125Y-84579719D02*
X98035982Y-84627338D01*
X98035982Y-84627338D02*
X98083601Y-84674957D01*
X98988363Y-85579719D02*
X98512173Y-85579719D01*
X98512173Y-85579719D02*
X98512173Y-84579719D01*
X99321697Y-85579719D02*
X99321697Y-84579719D01*
X99893125Y-85579719D02*
X99464554Y-85008290D01*
X99893125Y-84579719D02*
X99321697Y-85151147D01*
X100687173Y-85579719D02*
X100687173Y-84579719D01*
X100687173Y-84579719D02*
X100925268Y-84579719D01*
X100925268Y-84579719D02*
X101068125Y-84627338D01*
X101068125Y-84627338D02*
X101163363Y-84722576D01*
X101163363Y-84722576D02*
X101210982Y-84817814D01*
X101210982Y-84817814D02*
X101258601Y-85008290D01*
X101258601Y-85008290D02*
X101258601Y-85151147D01*
X101258601Y-85151147D02*
X101210982Y-85341623D01*
X101210982Y-85341623D02*
X101163363Y-85436861D01*
X101163363Y-85436861D02*
X101068125Y-85532100D01*
X101068125Y-85532100D02*
X100925268Y-85579719D01*
X100925268Y-85579719D02*
X100687173Y-85579719D01*
X101687173Y-85579719D02*
X101687173Y-84579719D01*
X102353839Y-84579719D02*
X102544315Y-84579719D01*
X102544315Y-84579719D02*
X102639553Y-84627338D01*
X102639553Y-84627338D02*
X102734791Y-84722576D01*
X102734791Y-84722576D02*
X102782410Y-84913052D01*
X102782410Y-84913052D02*
X102782410Y-85246385D01*
X102782410Y-85246385D02*
X102734791Y-85436861D01*
X102734791Y-85436861D02*
X102639553Y-85532100D01*
X102639553Y-85532100D02*
X102544315Y-85579719D01*
X102544315Y-85579719D02*
X102353839Y-85579719D01*
X102353839Y-85579719D02*
X102258601Y-85532100D01*
X102258601Y-85532100D02*
X102163363Y-85436861D01*
X102163363Y-85436861D02*
X102115744Y-85246385D01*
X102115744Y-85246385D02*
X102115744Y-84913052D01*
X102115744Y-84913052D02*
X102163363Y-84722576D01*
X102163363Y-84722576D02*
X102258601Y-84627338D01*
X102258601Y-84627338D02*
X102353839Y-84579719D01*
X105671935Y-86802219D02*
X106290982Y-86802219D01*
X106290982Y-86802219D02*
X105957649Y-87183171D01*
X105957649Y-87183171D02*
X106100506Y-87183171D01*
X106100506Y-87183171D02*
X106195744Y-87230790D01*
X106195744Y-87230790D02*
X106243363Y-87278409D01*
X106243363Y-87278409D02*
X106290982Y-87373647D01*
X106290982Y-87373647D02*
X106290982Y-87611742D01*
X106290982Y-87611742D02*
X106243363Y-87706980D01*
X106243363Y-87706980D02*
X106195744Y-87754600D01*
X106195744Y-87754600D02*
X106100506Y-87802219D01*
X106100506Y-87802219D02*
X105814792Y-87802219D01*
X105814792Y-87802219D02*
X105719554Y-87754600D01*
X105719554Y-87754600D02*
X105671935Y-87706980D01*
X106719554Y-87706980D02*
X106767173Y-87754600D01*
X106767173Y-87754600D02*
X106719554Y-87802219D01*
X106719554Y-87802219D02*
X106671935Y-87754600D01*
X106671935Y-87754600D02*
X106719554Y-87706980D01*
X106719554Y-87706980D02*
X106719554Y-87802219D01*
X107100506Y-86802219D02*
X107719553Y-86802219D01*
X107719553Y-86802219D02*
X107386220Y-87183171D01*
X107386220Y-87183171D02*
X107529077Y-87183171D01*
X107529077Y-87183171D02*
X107624315Y-87230790D01*
X107624315Y-87230790D02*
X107671934Y-87278409D01*
X107671934Y-87278409D02*
X107719553Y-87373647D01*
X107719553Y-87373647D02*
X107719553Y-87611742D01*
X107719553Y-87611742D02*
X107671934Y-87706980D01*
X107671934Y-87706980D02*
X107624315Y-87754600D01*
X107624315Y-87754600D02*
X107529077Y-87802219D01*
X107529077Y-87802219D02*
X107243363Y-87802219D01*
X107243363Y-87802219D02*
X107148125Y-87754600D01*
X107148125Y-87754600D02*
X107100506Y-87706980D01*
X108005268Y-86802219D02*
X108338601Y-87802219D01*
X108338601Y-87802219D02*
X108671934Y-86802219D01*
X123679838Y-84184017D02*
X123632219Y-84279255D01*
X123632219Y-84279255D02*
X123632219Y-84422112D01*
X123632219Y-84422112D02*
X123679838Y-84564969D01*
X123679838Y-84564969D02*
X123775076Y-84660207D01*
X123775076Y-84660207D02*
X123870314Y-84707826D01*
X123870314Y-84707826D02*
X124060790Y-84755445D01*
X124060790Y-84755445D02*
X124203647Y-84755445D01*
X124203647Y-84755445D02*
X124394123Y-84707826D01*
X124394123Y-84707826D02*
X124489361Y-84660207D01*
X124489361Y-84660207D02*
X124584600Y-84564969D01*
X124584600Y-84564969D02*
X124632219Y-84422112D01*
X124632219Y-84422112D02*
X124632219Y-84326874D01*
X124632219Y-84326874D02*
X124584600Y-84184017D01*
X124584600Y-84184017D02*
X124536980Y-84136398D01*
X124536980Y-84136398D02*
X124203647Y-84136398D01*
X124203647Y-84136398D02*
X124203647Y-84326874D01*
X124632219Y-83707826D02*
X123632219Y-83707826D01*
X123632219Y-83707826D02*
X124632219Y-83136398D01*
X124632219Y-83136398D02*
X123632219Y-83136398D01*
X124632219Y-82660207D02*
X123632219Y-82660207D01*
X123632219Y-82660207D02*
X123632219Y-82422112D01*
X123632219Y-82422112D02*
X123679838Y-82279255D01*
X123679838Y-82279255D02*
X123775076Y-82184017D01*
X123775076Y-82184017D02*
X123870314Y-82136398D01*
X123870314Y-82136398D02*
X124060790Y-82088779D01*
X124060790Y-82088779D02*
X124203647Y-82088779D01*
X124203647Y-82088779D02*
X124394123Y-82136398D01*
X124394123Y-82136398D02*
X124489361Y-82184017D01*
X124489361Y-82184017D02*
X124584600Y-82279255D01*
X124584600Y-82279255D02*
X124632219Y-82422112D01*
X124632219Y-82422112D02*
X124632219Y-82660207D01*
X124346504Y-81707826D02*
X124346504Y-81231636D01*
X124632219Y-81803064D02*
X123632219Y-81469731D01*
X123632219Y-81469731D02*
X124632219Y-81136398D01*
X121864435Y-117282219D02*
X122483482Y-117282219D01*
X122483482Y-117282219D02*
X122150149Y-117663171D01*
X122150149Y-117663171D02*
X122293006Y-117663171D01*
X122293006Y-117663171D02*
X122388244Y-117710790D01*
X122388244Y-117710790D02*
X122435863Y-117758409D01*
X122435863Y-117758409D02*
X122483482Y-117853647D01*
X122483482Y-117853647D02*
X122483482Y-118091742D01*
X122483482Y-118091742D02*
X122435863Y-118186980D01*
X122435863Y-118186980D02*
X122388244Y-118234600D01*
X122388244Y-118234600D02*
X122293006Y-118282219D01*
X122293006Y-118282219D02*
X122007292Y-118282219D01*
X122007292Y-118282219D02*
X121912054Y-118234600D01*
X121912054Y-118234600D02*
X121864435Y-118186980D01*
X122912054Y-118186980D02*
X122959673Y-118234600D01*
X122959673Y-118234600D02*
X122912054Y-118282219D01*
X122912054Y-118282219D02*
X122864435Y-118234600D01*
X122864435Y-118234600D02*
X122912054Y-118186980D01*
X122912054Y-118186980D02*
X122912054Y-118282219D01*
X123293006Y-117282219D02*
X123912053Y-117282219D01*
X123912053Y-117282219D02*
X123578720Y-117663171D01*
X123578720Y-117663171D02*
X123721577Y-117663171D01*
X123721577Y-117663171D02*
X123816815Y-117710790D01*
X123816815Y-117710790D02*
X123864434Y-117758409D01*
X123864434Y-117758409D02*
X123912053Y-117853647D01*
X123912053Y-117853647D02*
X123912053Y-118091742D01*
X123912053Y-118091742D02*
X123864434Y-118186980D01*
X123864434Y-118186980D02*
X123816815Y-118234600D01*
X123816815Y-118234600D02*
X123721577Y-118282219D01*
X123721577Y-118282219D02*
X123435863Y-118282219D01*
X123435863Y-118282219D02*
X123340625Y-118234600D01*
X123340625Y-118234600D02*
X123293006Y-118186980D01*
X124197768Y-117282219D02*
X124531101Y-118282219D01*
X124531101Y-118282219D02*
X124864434Y-117282219D01*
X75810982Y-117329838D02*
X75715744Y-117282219D01*
X75715744Y-117282219D02*
X75572887Y-117282219D01*
X75572887Y-117282219D02*
X75430030Y-117329838D01*
X75430030Y-117329838D02*
X75334792Y-117425076D01*
X75334792Y-117425076D02*
X75287173Y-117520314D01*
X75287173Y-117520314D02*
X75239554Y-117710790D01*
X75239554Y-117710790D02*
X75239554Y-117853647D01*
X75239554Y-117853647D02*
X75287173Y-118044123D01*
X75287173Y-118044123D02*
X75334792Y-118139361D01*
X75334792Y-118139361D02*
X75430030Y-118234600D01*
X75430030Y-118234600D02*
X75572887Y-118282219D01*
X75572887Y-118282219D02*
X75668125Y-118282219D01*
X75668125Y-118282219D02*
X75810982Y-118234600D01*
X75810982Y-118234600D02*
X75858601Y-118186980D01*
X75858601Y-118186980D02*
X75858601Y-117853647D01*
X75858601Y-117853647D02*
X75668125Y-117853647D01*
X76287173Y-118282219D02*
X76287173Y-117282219D01*
X76287173Y-117282219D02*
X76858601Y-118282219D01*
X76858601Y-118282219D02*
X76858601Y-117282219D01*
X77334792Y-118282219D02*
X77334792Y-117282219D01*
X77334792Y-117282219D02*
X77572887Y-117282219D01*
X77572887Y-117282219D02*
X77715744Y-117329838D01*
X77715744Y-117329838D02*
X77810982Y-117425076D01*
X77810982Y-117425076D02*
X77858601Y-117520314D01*
X77858601Y-117520314D02*
X77906220Y-117710790D01*
X77906220Y-117710790D02*
X77906220Y-117853647D01*
X77906220Y-117853647D02*
X77858601Y-118044123D01*
X77858601Y-118044123D02*
X77810982Y-118139361D01*
X77810982Y-118139361D02*
X77715744Y-118234600D01*
X77715744Y-118234600D02*
X77572887Y-118282219D01*
X77572887Y-118282219D02*
X77334792Y-118282219D01*
X85447173Y-114900909D02*
X85780506Y-114900909D01*
X85923363Y-115424719D02*
X85447173Y-115424719D01*
X85447173Y-115424719D02*
X85447173Y-114424719D01*
X85447173Y-114424719D02*
X85923363Y-114424719D01*
X86256697Y-115424719D02*
X86780506Y-114758052D01*
X86256697Y-114758052D02*
X86780506Y-115424719D01*
X87018602Y-114758052D02*
X87399554Y-114758052D01*
X87161459Y-114424719D02*
X87161459Y-115281861D01*
X87161459Y-115281861D02*
X87209078Y-115377100D01*
X87209078Y-115377100D02*
X87304316Y-115424719D01*
X87304316Y-115424719D02*
X87399554Y-115424719D01*
X88113840Y-115377100D02*
X88018602Y-115424719D01*
X88018602Y-115424719D02*
X87828126Y-115424719D01*
X87828126Y-115424719D02*
X87732888Y-115377100D01*
X87732888Y-115377100D02*
X87685269Y-115281861D01*
X87685269Y-115281861D02*
X87685269Y-114900909D01*
X87685269Y-114900909D02*
X87732888Y-114805671D01*
X87732888Y-114805671D02*
X87828126Y-114758052D01*
X87828126Y-114758052D02*
X88018602Y-114758052D01*
X88018602Y-114758052D02*
X88113840Y-114805671D01*
X88113840Y-114805671D02*
X88161459Y-114900909D01*
X88161459Y-114900909D02*
X88161459Y-114996147D01*
X88161459Y-114996147D02*
X87685269Y-115091385D01*
X88590031Y-115424719D02*
X88590031Y-114758052D01*
X88590031Y-114948528D02*
X88637650Y-114853290D01*
X88637650Y-114853290D02*
X88685269Y-114805671D01*
X88685269Y-114805671D02*
X88780507Y-114758052D01*
X88780507Y-114758052D02*
X88875745Y-114758052D01*
X89209079Y-114758052D02*
X89209079Y-115424719D01*
X89209079Y-114853290D02*
X89256698Y-114805671D01*
X89256698Y-114805671D02*
X89351936Y-114758052D01*
X89351936Y-114758052D02*
X89494793Y-114758052D01*
X89494793Y-114758052D02*
X89590031Y-114805671D01*
X89590031Y-114805671D02*
X89637650Y-114900909D01*
X89637650Y-114900909D02*
X89637650Y-115424719D01*
X90542412Y-115424719D02*
X90542412Y-114900909D01*
X90542412Y-114900909D02*
X90494793Y-114805671D01*
X90494793Y-114805671D02*
X90399555Y-114758052D01*
X90399555Y-114758052D02*
X90209079Y-114758052D01*
X90209079Y-114758052D02*
X90113841Y-114805671D01*
X90542412Y-115377100D02*
X90447174Y-115424719D01*
X90447174Y-115424719D02*
X90209079Y-115424719D01*
X90209079Y-115424719D02*
X90113841Y-115377100D01*
X90113841Y-115377100D02*
X90066222Y-115281861D01*
X90066222Y-115281861D02*
X90066222Y-115186623D01*
X90066222Y-115186623D02*
X90113841Y-115091385D01*
X90113841Y-115091385D02*
X90209079Y-115043766D01*
X90209079Y-115043766D02*
X90447174Y-115043766D01*
X90447174Y-115043766D02*
X90542412Y-114996147D01*
X91161460Y-115424719D02*
X91066222Y-115377100D01*
X91066222Y-115377100D02*
X91018603Y-115281861D01*
X91018603Y-115281861D02*
X91018603Y-114424719D01*
X92304318Y-115424719D02*
X92304318Y-114424719D01*
X92304318Y-114900909D02*
X92875746Y-114900909D01*
X92875746Y-115424719D02*
X92875746Y-114424719D01*
X93304318Y-115377100D02*
X93447175Y-115424719D01*
X93447175Y-115424719D02*
X93685270Y-115424719D01*
X93685270Y-115424719D02*
X93780508Y-115377100D01*
X93780508Y-115377100D02*
X93828127Y-115329480D01*
X93828127Y-115329480D02*
X93875746Y-115234242D01*
X93875746Y-115234242D02*
X93875746Y-115139004D01*
X93875746Y-115139004D02*
X93828127Y-115043766D01*
X93828127Y-115043766D02*
X93780508Y-114996147D01*
X93780508Y-114996147D02*
X93685270Y-114948528D01*
X93685270Y-114948528D02*
X93494794Y-114900909D01*
X93494794Y-114900909D02*
X93399556Y-114853290D01*
X93399556Y-114853290D02*
X93351937Y-114805671D01*
X93351937Y-114805671D02*
X93304318Y-114710433D01*
X93304318Y-114710433D02*
X93304318Y-114615195D01*
X93304318Y-114615195D02*
X93351937Y-114519957D01*
X93351937Y-114519957D02*
X93399556Y-114472338D01*
X93399556Y-114472338D02*
X93494794Y-114424719D01*
X93494794Y-114424719D02*
X93732889Y-114424719D01*
X93732889Y-114424719D02*
X93875746Y-114472338D01*
X94304318Y-114900909D02*
X94637651Y-114900909D01*
X94780508Y-115424719D02*
X94304318Y-115424719D01*
X94304318Y-115424719D02*
X94304318Y-114424719D01*
X94304318Y-114424719D02*
X94780508Y-114424719D01*
X86030000Y-106350000D02*
X88230000Y-106350000D01*
X89030000Y-106350000D02*
X91230000Y-106350000D01*
X92030000Y-106350000D02*
X93015000Y-106350000D01*
X93015000Y-106350000D02*
X93015000Y-108550000D01*
X93015000Y-109350000D02*
X93015000Y-111550000D01*
X93015000Y-112350000D02*
X93015000Y-113970000D01*
X93015000Y-113970000D02*
X90815000Y-113970000D01*
X90015000Y-113970000D02*
X87815000Y-113970000D01*
X87015000Y-113970000D02*
X86030000Y-113970000D01*
X86030000Y-113970000D02*
X86030000Y-111770000D01*
X86030000Y-110970000D02*
X86030000Y-108770000D01*
X86030000Y-107970000D02*
X86030000Y-106350000D01*
%TO.C,J7*%
X88022219Y-86998333D02*
X88736504Y-86998333D01*
X88736504Y-86998333D02*
X88879361Y-87045952D01*
X88879361Y-87045952D02*
X88974600Y-87141190D01*
X88974600Y-87141190D02*
X89022219Y-87284047D01*
X89022219Y-87284047D02*
X89022219Y-87379285D01*
X88022219Y-86617380D02*
X88022219Y-85950714D01*
X88022219Y-85950714D02*
X89022219Y-86379285D01*
%TO.C,J5*%
X83791666Y-91197219D02*
X83791666Y-91911504D01*
X83791666Y-91911504D02*
X83744047Y-92054361D01*
X83744047Y-92054361D02*
X83648809Y-92149600D01*
X83648809Y-92149600D02*
X83505952Y-92197219D01*
X83505952Y-92197219D02*
X83410714Y-92197219D01*
X84744047Y-91197219D02*
X84267857Y-91197219D01*
X84267857Y-91197219D02*
X84220238Y-91673409D01*
X84220238Y-91673409D02*
X84267857Y-91625790D01*
X84267857Y-91625790D02*
X84363095Y-91578171D01*
X84363095Y-91578171D02*
X84601190Y-91578171D01*
X84601190Y-91578171D02*
X84696428Y-91625790D01*
X84696428Y-91625790D02*
X84744047Y-91673409D01*
X84744047Y-91673409D02*
X84791666Y-91768647D01*
X84791666Y-91768647D02*
X84791666Y-92006742D01*
X84791666Y-92006742D02*
X84744047Y-92101980D01*
X84744047Y-92101980D02*
X84696428Y-92149600D01*
X84696428Y-92149600D02*
X84601190Y-92197219D01*
X84601190Y-92197219D02*
X84363095Y-92197219D01*
X84363095Y-92197219D02*
X84267857Y-92149600D01*
X84267857Y-92149600D02*
X84220238Y-92101980D01*
%TO.C,U2*%
X114478095Y-91887219D02*
X114478095Y-92696742D01*
X114478095Y-92696742D02*
X114525714Y-92791980D01*
X114525714Y-92791980D02*
X114573333Y-92839600D01*
X114573333Y-92839600D02*
X114668571Y-92887219D01*
X114668571Y-92887219D02*
X114859047Y-92887219D01*
X114859047Y-92887219D02*
X114954285Y-92839600D01*
X114954285Y-92839600D02*
X115001904Y-92791980D01*
X115001904Y-92791980D02*
X115049523Y-92696742D01*
X115049523Y-92696742D02*
X115049523Y-91887219D01*
X115478095Y-91982457D02*
X115525714Y-91934838D01*
X115525714Y-91934838D02*
X115620952Y-91887219D01*
X115620952Y-91887219D02*
X115859047Y-91887219D01*
X115859047Y-91887219D02*
X115954285Y-91934838D01*
X115954285Y-91934838D02*
X116001904Y-91982457D01*
X116001904Y-91982457D02*
X116049523Y-92077695D01*
X116049523Y-92077695D02*
X116049523Y-92172933D01*
X116049523Y-92172933D02*
X116001904Y-92315790D01*
X116001904Y-92315790D02*
X115430476Y-92887219D01*
X115430476Y-92887219D02*
X116049523Y-92887219D01*
%TO.C,JP1*%
X113771666Y-101887219D02*
X113771666Y-102601504D01*
X113771666Y-102601504D02*
X113724047Y-102744361D01*
X113724047Y-102744361D02*
X113628809Y-102839600D01*
X113628809Y-102839600D02*
X113485952Y-102887219D01*
X113485952Y-102887219D02*
X113390714Y-102887219D01*
X114247857Y-102887219D02*
X114247857Y-101887219D01*
X114247857Y-101887219D02*
X114628809Y-101887219D01*
X114628809Y-101887219D02*
X114724047Y-101934838D01*
X114724047Y-101934838D02*
X114771666Y-101982457D01*
X114771666Y-101982457D02*
X114819285Y-102077695D01*
X114819285Y-102077695D02*
X114819285Y-102220552D01*
X114819285Y-102220552D02*
X114771666Y-102315790D01*
X114771666Y-102315790D02*
X114724047Y-102363409D01*
X114724047Y-102363409D02*
X114628809Y-102411028D01*
X114628809Y-102411028D02*
X114247857Y-102411028D01*
X115771666Y-102887219D02*
X115200238Y-102887219D01*
X115485952Y-102887219D02*
X115485952Y-101887219D01*
X115485952Y-101887219D02*
X115390714Y-102030076D01*
X115390714Y-102030076D02*
X115295476Y-102125314D01*
X115295476Y-102125314D02*
X115200238Y-102172933D01*
%TO.C,JP2*%
X84561666Y-99452219D02*
X84561666Y-100166504D01*
X84561666Y-100166504D02*
X84514047Y-100309361D01*
X84514047Y-100309361D02*
X84418809Y-100404600D01*
X84418809Y-100404600D02*
X84275952Y-100452219D01*
X84275952Y-100452219D02*
X84180714Y-100452219D01*
X85037857Y-100452219D02*
X85037857Y-99452219D01*
X85037857Y-99452219D02*
X85418809Y-99452219D01*
X85418809Y-99452219D02*
X85514047Y-99499838D01*
X85514047Y-99499838D02*
X85561666Y-99547457D01*
X85561666Y-99547457D02*
X85609285Y-99642695D01*
X85609285Y-99642695D02*
X85609285Y-99785552D01*
X85609285Y-99785552D02*
X85561666Y-99880790D01*
X85561666Y-99880790D02*
X85514047Y-99928409D01*
X85514047Y-99928409D02*
X85418809Y-99976028D01*
X85418809Y-99976028D02*
X85037857Y-99976028D01*
X85990238Y-99547457D02*
X86037857Y-99499838D01*
X86037857Y-99499838D02*
X86133095Y-99452219D01*
X86133095Y-99452219D02*
X86371190Y-99452219D01*
X86371190Y-99452219D02*
X86466428Y-99499838D01*
X86466428Y-99499838D02*
X86514047Y-99547457D01*
X86514047Y-99547457D02*
X86561666Y-99642695D01*
X86561666Y-99642695D02*
X86561666Y-99737933D01*
X86561666Y-99737933D02*
X86514047Y-99880790D01*
X86514047Y-99880790D02*
X85942619Y-100452219D01*
X85942619Y-100452219D02*
X86561666Y-100452219D01*
%TO.C,JP3*%
X79132219Y-85593333D02*
X79846504Y-85593333D01*
X79846504Y-85593333D02*
X79989361Y-85640952D01*
X79989361Y-85640952D02*
X80084600Y-85736190D01*
X80084600Y-85736190D02*
X80132219Y-85879047D01*
X80132219Y-85879047D02*
X80132219Y-85974285D01*
X80132219Y-85117142D02*
X79132219Y-85117142D01*
X79132219Y-85117142D02*
X79132219Y-84736190D01*
X79132219Y-84736190D02*
X79179838Y-84640952D01*
X79179838Y-84640952D02*
X79227457Y-84593333D01*
X79227457Y-84593333D02*
X79322695Y-84545714D01*
X79322695Y-84545714D02*
X79465552Y-84545714D01*
X79465552Y-84545714D02*
X79560790Y-84593333D01*
X79560790Y-84593333D02*
X79608409Y-84640952D01*
X79608409Y-84640952D02*
X79656028Y-84736190D01*
X79656028Y-84736190D02*
X79656028Y-85117142D01*
X79132219Y-84212380D02*
X79132219Y-83593333D01*
X79132219Y-83593333D02*
X79513171Y-83926666D01*
X79513171Y-83926666D02*
X79513171Y-83783809D01*
X79513171Y-83783809D02*
X79560790Y-83688571D01*
X79560790Y-83688571D02*
X79608409Y-83640952D01*
X79608409Y-83640952D02*
X79703647Y-83593333D01*
X79703647Y-83593333D02*
X79941742Y-83593333D01*
X79941742Y-83593333D02*
X80036980Y-83640952D01*
X80036980Y-83640952D02*
X80084600Y-83688571D01*
X80084600Y-83688571D02*
X80132219Y-83783809D01*
X80132219Y-83783809D02*
X80132219Y-84069523D01*
X80132219Y-84069523D02*
X80084600Y-84164761D01*
X80084600Y-84164761D02*
X80036980Y-84212380D01*
%TO.C,Y1*%
X91586309Y-110136028D02*
X91586309Y-110612219D01*
X91252976Y-109612219D02*
X91586309Y-110136028D01*
X91586309Y-110136028D02*
X91919642Y-109612219D01*
X92776785Y-110612219D02*
X92205357Y-110612219D01*
X92491071Y-110612219D02*
X92491071Y-109612219D01*
X92491071Y-109612219D02*
X92395833Y-109755076D01*
X92395833Y-109755076D02*
X92300595Y-109850314D01*
X92300595Y-109850314D02*
X92205357Y-109897933D01*
%TO.C,C12*%
X90784642Y-113374480D02*
X90737023Y-113422100D01*
X90737023Y-113422100D02*
X90594166Y-113469719D01*
X90594166Y-113469719D02*
X90498928Y-113469719D01*
X90498928Y-113469719D02*
X90356071Y-113422100D01*
X90356071Y-113422100D02*
X90260833Y-113326861D01*
X90260833Y-113326861D02*
X90213214Y-113231623D01*
X90213214Y-113231623D02*
X90165595Y-113041147D01*
X90165595Y-113041147D02*
X90165595Y-112898290D01*
X90165595Y-112898290D02*
X90213214Y-112707814D01*
X90213214Y-112707814D02*
X90260833Y-112612576D01*
X90260833Y-112612576D02*
X90356071Y-112517338D01*
X90356071Y-112517338D02*
X90498928Y-112469719D01*
X90498928Y-112469719D02*
X90594166Y-112469719D01*
X90594166Y-112469719D02*
X90737023Y-112517338D01*
X90737023Y-112517338D02*
X90784642Y-112564957D01*
X91737023Y-113469719D02*
X91165595Y-113469719D01*
X91451309Y-113469719D02*
X91451309Y-112469719D01*
X91451309Y-112469719D02*
X91356071Y-112612576D01*
X91356071Y-112612576D02*
X91260833Y-112707814D01*
X91260833Y-112707814D02*
X91165595Y-112755433D01*
X92117976Y-112564957D02*
X92165595Y-112517338D01*
X92165595Y-112517338D02*
X92260833Y-112469719D01*
X92260833Y-112469719D02*
X92498928Y-112469719D01*
X92498928Y-112469719D02*
X92594166Y-112517338D01*
X92594166Y-112517338D02*
X92641785Y-112564957D01*
X92641785Y-112564957D02*
X92689404Y-112660195D01*
X92689404Y-112660195D02*
X92689404Y-112755433D01*
X92689404Y-112755433D02*
X92641785Y-112898290D01*
X92641785Y-112898290D02*
X92070357Y-113469719D01*
X92070357Y-113469719D02*
X92689404Y-113469719D01*
%TO.C,C17*%
X76497142Y-98451980D02*
X76449523Y-98499600D01*
X76449523Y-98499600D02*
X76306666Y-98547219D01*
X76306666Y-98547219D02*
X76211428Y-98547219D01*
X76211428Y-98547219D02*
X76068571Y-98499600D01*
X76068571Y-98499600D02*
X75973333Y-98404361D01*
X75973333Y-98404361D02*
X75925714Y-98309123D01*
X75925714Y-98309123D02*
X75878095Y-98118647D01*
X75878095Y-98118647D02*
X75878095Y-97975790D01*
X75878095Y-97975790D02*
X75925714Y-97785314D01*
X75925714Y-97785314D02*
X75973333Y-97690076D01*
X75973333Y-97690076D02*
X76068571Y-97594838D01*
X76068571Y-97594838D02*
X76211428Y-97547219D01*
X76211428Y-97547219D02*
X76306666Y-97547219D01*
X76306666Y-97547219D02*
X76449523Y-97594838D01*
X76449523Y-97594838D02*
X76497142Y-97642457D01*
X77449523Y-98547219D02*
X76878095Y-98547219D01*
X77163809Y-98547219D02*
X77163809Y-97547219D01*
X77163809Y-97547219D02*
X77068571Y-97690076D01*
X77068571Y-97690076D02*
X76973333Y-97785314D01*
X76973333Y-97785314D02*
X76878095Y-97832933D01*
X77782857Y-97547219D02*
X78449523Y-97547219D01*
X78449523Y-97547219D02*
X78020952Y-98547219D01*
%TO.C,C11*%
X90784642Y-107659480D02*
X90737023Y-107707100D01*
X90737023Y-107707100D02*
X90594166Y-107754719D01*
X90594166Y-107754719D02*
X90498928Y-107754719D01*
X90498928Y-107754719D02*
X90356071Y-107707100D01*
X90356071Y-107707100D02*
X90260833Y-107611861D01*
X90260833Y-107611861D02*
X90213214Y-107516623D01*
X90213214Y-107516623D02*
X90165595Y-107326147D01*
X90165595Y-107326147D02*
X90165595Y-107183290D01*
X90165595Y-107183290D02*
X90213214Y-106992814D01*
X90213214Y-106992814D02*
X90260833Y-106897576D01*
X90260833Y-106897576D02*
X90356071Y-106802338D01*
X90356071Y-106802338D02*
X90498928Y-106754719D01*
X90498928Y-106754719D02*
X90594166Y-106754719D01*
X90594166Y-106754719D02*
X90737023Y-106802338D01*
X90737023Y-106802338D02*
X90784642Y-106849957D01*
X91737023Y-107754719D02*
X91165595Y-107754719D01*
X91451309Y-107754719D02*
X91451309Y-106754719D01*
X91451309Y-106754719D02*
X91356071Y-106897576D01*
X91356071Y-106897576D02*
X91260833Y-106992814D01*
X91260833Y-106992814D02*
X91165595Y-107040433D01*
X92689404Y-107754719D02*
X92117976Y-107754719D01*
X92403690Y-107754719D02*
X92403690Y-106754719D01*
X92403690Y-106754719D02*
X92308452Y-106897576D01*
X92308452Y-106897576D02*
X92213214Y-106992814D01*
X92213214Y-106992814D02*
X92117976Y-107040433D01*
%TO.C,U1*%
X99238095Y-99452219D02*
X99238095Y-100261742D01*
X99238095Y-100261742D02*
X99285714Y-100356980D01*
X99285714Y-100356980D02*
X99333333Y-100404600D01*
X99333333Y-100404600D02*
X99428571Y-100452219D01*
X99428571Y-100452219D02*
X99619047Y-100452219D01*
X99619047Y-100452219D02*
X99714285Y-100404600D01*
X99714285Y-100404600D02*
X99761904Y-100356980D01*
X99761904Y-100356980D02*
X99809523Y-100261742D01*
X99809523Y-100261742D02*
X99809523Y-99452219D01*
X100809523Y-100452219D02*
X100238095Y-100452219D01*
X100523809Y-100452219D02*
X100523809Y-99452219D01*
X100523809Y-99452219D02*
X100428571Y-99595076D01*
X100428571Y-99595076D02*
X100333333Y-99690314D01*
X100333333Y-99690314D02*
X100238095Y-99737933D01*
%TO.C,C1*%
X103643333Y-113056980D02*
X103595714Y-113104600D01*
X103595714Y-113104600D02*
X103452857Y-113152219D01*
X103452857Y-113152219D02*
X103357619Y-113152219D01*
X103357619Y-113152219D02*
X103214762Y-113104600D01*
X103214762Y-113104600D02*
X103119524Y-113009361D01*
X103119524Y-113009361D02*
X103071905Y-112914123D01*
X103071905Y-112914123D02*
X103024286Y-112723647D01*
X103024286Y-112723647D02*
X103024286Y-112580790D01*
X103024286Y-112580790D02*
X103071905Y-112390314D01*
X103071905Y-112390314D02*
X103119524Y-112295076D01*
X103119524Y-112295076D02*
X103214762Y-112199838D01*
X103214762Y-112199838D02*
X103357619Y-112152219D01*
X103357619Y-112152219D02*
X103452857Y-112152219D01*
X103452857Y-112152219D02*
X103595714Y-112199838D01*
X103595714Y-112199838D02*
X103643333Y-112247457D01*
X104595714Y-113152219D02*
X104024286Y-113152219D01*
X104310000Y-113152219D02*
X104310000Y-112152219D01*
X104310000Y-112152219D02*
X104214762Y-112295076D01*
X104214762Y-112295076D02*
X104119524Y-112390314D01*
X104119524Y-112390314D02*
X104024286Y-112437933D01*
%TO.C,C16*%
X123534480Y-90482857D02*
X123582100Y-90530476D01*
X123582100Y-90530476D02*
X123629719Y-90673333D01*
X123629719Y-90673333D02*
X123629719Y-90768571D01*
X123629719Y-90768571D02*
X123582100Y-90911428D01*
X123582100Y-90911428D02*
X123486861Y-91006666D01*
X123486861Y-91006666D02*
X123391623Y-91054285D01*
X123391623Y-91054285D02*
X123201147Y-91101904D01*
X123201147Y-91101904D02*
X123058290Y-91101904D01*
X123058290Y-91101904D02*
X122867814Y-91054285D01*
X122867814Y-91054285D02*
X122772576Y-91006666D01*
X122772576Y-91006666D02*
X122677338Y-90911428D01*
X122677338Y-90911428D02*
X122629719Y-90768571D01*
X122629719Y-90768571D02*
X122629719Y-90673333D01*
X122629719Y-90673333D02*
X122677338Y-90530476D01*
X122677338Y-90530476D02*
X122724957Y-90482857D01*
X123629719Y-89530476D02*
X123629719Y-90101904D01*
X123629719Y-89816190D02*
X122629719Y-89816190D01*
X122629719Y-89816190D02*
X122772576Y-89911428D01*
X122772576Y-89911428D02*
X122867814Y-90006666D01*
X122867814Y-90006666D02*
X122915433Y-90101904D01*
X122629719Y-88673333D02*
X122629719Y-88863809D01*
X122629719Y-88863809D02*
X122677338Y-88959047D01*
X122677338Y-88959047D02*
X122724957Y-89006666D01*
X122724957Y-89006666D02*
X122867814Y-89101904D01*
X122867814Y-89101904D02*
X123058290Y-89149523D01*
X123058290Y-89149523D02*
X123439242Y-89149523D01*
X123439242Y-89149523D02*
X123534480Y-89101904D01*
X123534480Y-89101904D02*
X123582100Y-89054285D01*
X123582100Y-89054285D02*
X123629719Y-88959047D01*
X123629719Y-88959047D02*
X123629719Y-88768571D01*
X123629719Y-88768571D02*
X123582100Y-88673333D01*
X123582100Y-88673333D02*
X123534480Y-88625714D01*
X123534480Y-88625714D02*
X123439242Y-88578095D01*
X123439242Y-88578095D02*
X123201147Y-88578095D01*
X123201147Y-88578095D02*
X123105909Y-88625714D01*
X123105909Y-88625714D02*
X123058290Y-88673333D01*
X123058290Y-88673333D02*
X123010671Y-88768571D01*
X123010671Y-88768571D02*
X123010671Y-88959047D01*
X123010671Y-88959047D02*
X123058290Y-89054285D01*
X123058290Y-89054285D02*
X123105909Y-89101904D01*
X123105909Y-89101904D02*
X123201147Y-89149523D01*
%TO.C,J6*%
X117446666Y-114057219D02*
X117446666Y-114771504D01*
X117446666Y-114771504D02*
X117399047Y-114914361D01*
X117399047Y-114914361D02*
X117303809Y-115009600D01*
X117303809Y-115009600D02*
X117160952Y-115057219D01*
X117160952Y-115057219D02*
X117065714Y-115057219D01*
X118351428Y-114057219D02*
X118160952Y-114057219D01*
X118160952Y-114057219D02*
X118065714Y-114104838D01*
X118065714Y-114104838D02*
X118018095Y-114152457D01*
X118018095Y-114152457D02*
X117922857Y-114295314D01*
X117922857Y-114295314D02*
X117875238Y-114485790D01*
X117875238Y-114485790D02*
X117875238Y-114866742D01*
X117875238Y-114866742D02*
X117922857Y-114961980D01*
X117922857Y-114961980D02*
X117970476Y-115009600D01*
X117970476Y-115009600D02*
X118065714Y-115057219D01*
X118065714Y-115057219D02*
X118256190Y-115057219D01*
X118256190Y-115057219D02*
X118351428Y-115009600D01*
X118351428Y-115009600D02*
X118399047Y-114961980D01*
X118399047Y-114961980D02*
X118446666Y-114866742D01*
X118446666Y-114866742D02*
X118446666Y-114628647D01*
X118446666Y-114628647D02*
X118399047Y-114533409D01*
X118399047Y-114533409D02*
X118351428Y-114485790D01*
X118351428Y-114485790D02*
X118256190Y-114438171D01*
X118256190Y-114438171D02*
X118065714Y-114438171D01*
X118065714Y-114438171D02*
X117970476Y-114485790D01*
X117970476Y-114485790D02*
X117922857Y-114533409D01*
X117922857Y-114533409D02*
X117875238Y-114628647D01*
%TO.C,SW1*%
X79616667Y-113104600D02*
X79759524Y-113152219D01*
X79759524Y-113152219D02*
X79997619Y-113152219D01*
X79997619Y-113152219D02*
X80092857Y-113104600D01*
X80092857Y-113104600D02*
X80140476Y-113056980D01*
X80140476Y-113056980D02*
X80188095Y-112961742D01*
X80188095Y-112961742D02*
X80188095Y-112866504D01*
X80188095Y-112866504D02*
X80140476Y-112771266D01*
X80140476Y-112771266D02*
X80092857Y-112723647D01*
X80092857Y-112723647D02*
X79997619Y-112676028D01*
X79997619Y-112676028D02*
X79807143Y-112628409D01*
X79807143Y-112628409D02*
X79711905Y-112580790D01*
X79711905Y-112580790D02*
X79664286Y-112533171D01*
X79664286Y-112533171D02*
X79616667Y-112437933D01*
X79616667Y-112437933D02*
X79616667Y-112342695D01*
X79616667Y-112342695D02*
X79664286Y-112247457D01*
X79664286Y-112247457D02*
X79711905Y-112199838D01*
X79711905Y-112199838D02*
X79807143Y-112152219D01*
X79807143Y-112152219D02*
X80045238Y-112152219D01*
X80045238Y-112152219D02*
X80188095Y-112199838D01*
X80521429Y-112152219D02*
X80759524Y-113152219D01*
X80759524Y-113152219D02*
X80950000Y-112437933D01*
X80950000Y-112437933D02*
X81140476Y-113152219D01*
X81140476Y-113152219D02*
X81378572Y-112152219D01*
X82283333Y-113152219D02*
X81711905Y-113152219D01*
X81997619Y-113152219D02*
X81997619Y-112152219D01*
X81997619Y-112152219D02*
X81902381Y-112295076D01*
X81902381Y-112295076D02*
X81807143Y-112390314D01*
X81807143Y-112390314D02*
X81711905Y-112437933D01*
%TO.C,R1*%
X78227219Y-88736666D02*
X77751028Y-89069999D01*
X78227219Y-89308094D02*
X77227219Y-89308094D01*
X77227219Y-89308094D02*
X77227219Y-88927142D01*
X77227219Y-88927142D02*
X77274838Y-88831904D01*
X77274838Y-88831904D02*
X77322457Y-88784285D01*
X77322457Y-88784285D02*
X77417695Y-88736666D01*
X77417695Y-88736666D02*
X77560552Y-88736666D01*
X77560552Y-88736666D02*
X77655790Y-88784285D01*
X77655790Y-88784285D02*
X77703409Y-88831904D01*
X77703409Y-88831904D02*
X77751028Y-88927142D01*
X77751028Y-88927142D02*
X77751028Y-89308094D01*
X78227219Y-87784285D02*
X78227219Y-88355713D01*
X78227219Y-88069999D02*
X77227219Y-88069999D01*
X77227219Y-88069999D02*
X77370076Y-88165237D01*
X77370076Y-88165237D02*
X77465314Y-88260475D01*
X77465314Y-88260475D02*
X77512933Y-88355713D01*
%TO.C,J7*%
X105180000Y-85930000D02*
X105180000Y-87300000D01*
X103810000Y-85930000D02*
X105180000Y-85930000D01*
X102540000Y-85930000D02*
X89740000Y-85930000D01*
X89740000Y-85930000D02*
X89740000Y-87300000D01*
X105180000Y-88670000D02*
X89740000Y-88670000D01*
%TO.C,J5*%
X81585000Y-85903000D02*
X81585000Y-86157000D01*
X81585000Y-89713000D02*
X81585000Y-89967000D01*
X82410000Y-84760000D02*
X82410000Y-84887000D01*
X82410000Y-91110000D02*
X82410000Y-90983000D01*
X82410000Y-91110000D02*
X83109000Y-91110000D01*
X83109000Y-84760000D02*
X82410000Y-84760000D01*
X85141000Y-91110000D02*
X85840000Y-91110000D01*
X85840000Y-84760000D02*
X85141000Y-84760000D01*
X85840000Y-84760000D02*
X85840000Y-84887000D01*
X85840000Y-91110000D02*
X85840000Y-90983000D01*
X86665000Y-85903000D02*
X86665000Y-86157000D01*
X86665000Y-87173000D02*
X86665000Y-87427000D01*
X86665000Y-88443000D02*
X86665000Y-88697000D01*
X86665000Y-89713000D02*
X86665000Y-89967000D01*
%TO.C,U2*%
X113390000Y-84585000D02*
X113390000Y-85085000D01*
X113390000Y-84585000D02*
X114390000Y-84585000D01*
X113390000Y-91285000D02*
X113390000Y-90785000D01*
X113390000Y-91285000D02*
X114390000Y-91285000D01*
X117090000Y-84585000D02*
X116090000Y-84585000D01*
X117090000Y-84585000D02*
X117090000Y-85585000D01*
X117090000Y-91285000D02*
X116090000Y-91285000D01*
X117090000Y-91285000D02*
X117090000Y-90285000D01*
%TO.C,JP1*%
X116005000Y-100335000D02*
X116005000Y-100935000D01*
X115305000Y-101635000D02*
X113905000Y-101635000D01*
X114855000Y-99635000D02*
X115305000Y-99635000D01*
X113905000Y-99635000D02*
X114355000Y-99635000D01*
X113205000Y-100935000D02*
X113205000Y-100335000D01*
X115305000Y-101635000D02*
G75*
G03*
X116005000Y-100935000I-1J700001D01*
G01*
X116005000Y-100335000D02*
G75*
G03*
X115305000Y-99635000I-700001J-1D01*
G01*
X113205000Y-100935000D02*
G75*
G03*
X113905000Y-101635000I700000J0D01*
G01*
X113905000Y-99635000D02*
G75*
G03*
X113205000Y-100335000I0J-700000D01*
G01*
%TO.C,JP2*%
X79535000Y-101570000D02*
X79535000Y-100970000D01*
X79885000Y-103120000D02*
X80885000Y-103120000D01*
X80185000Y-100270000D02*
X81985000Y-100270000D01*
X80385000Y-102620000D02*
X79885000Y-103120000D01*
X80385000Y-102620000D02*
X80885000Y-103120000D01*
X80735000Y-102270000D02*
X80185000Y-102270000D01*
X81985000Y-102270000D02*
X81185000Y-102270000D01*
X82435000Y-100270000D02*
X82935000Y-100270000D01*
X82935000Y-102270000D02*
X82435000Y-102270000D01*
X83635000Y-100970000D02*
X83635000Y-101570000D01*
X80235000Y-100270000D02*
G75*
G03*
X79535000Y-100970000I-1J-699999D01*
G01*
X79535000Y-101570000D02*
G75*
G03*
X80235000Y-102270000I699999J-1D01*
G01*
X83635000Y-100970000D02*
G75*
G03*
X82935000Y-100270000I-700000J0D01*
G01*
X82935000Y-102270000D02*
G75*
G03*
X83635000Y-101570000I0J700000D01*
G01*
%TO.C,JP3*%
X79760000Y-83220000D02*
G75*
G03*
X80460000Y-82520000I0J700000D01*
G01*
X80460000Y-81920000D02*
G75*
G03*
X79760000Y-81220000I-700000J0D01*
G01*
X76360000Y-82520000D02*
G75*
G03*
X77060000Y-83220000I699999J-1D01*
G01*
X77060000Y-81220000D02*
G75*
G03*
X76360000Y-81920000I-1J-699999D01*
G01*
X80460000Y-81920000D02*
X80460000Y-82520000D01*
X79760000Y-83220000D02*
X79260000Y-83220000D01*
X79260000Y-81220000D02*
X79760000Y-81220000D01*
X78810000Y-83220000D02*
X78010000Y-83220000D01*
X77560000Y-83220000D02*
X77010000Y-83220000D01*
X77210000Y-83570000D02*
X77710000Y-84070000D01*
X77210000Y-83570000D02*
X76710000Y-84070000D01*
X77010000Y-81220000D02*
X78810000Y-81220000D01*
X76710000Y-84070000D02*
X77710000Y-84070000D01*
X76360000Y-82520000D02*
X76360000Y-81920000D01*
%TO.C,Y1*%
X88970000Y-110060000D02*
X88170000Y-110060000D01*
X88170000Y-110060000D02*
X88170000Y-110260000D01*
X88170000Y-110260000D02*
X88970000Y-110260000D01*
X88970000Y-110260000D02*
X88970000Y-110060000D01*
X86870000Y-110260000D02*
X86870000Y-110060000D01*
X88570000Y-109210000D02*
X88920000Y-109210000D01*
X88570000Y-109710000D02*
X88570000Y-109210000D01*
X88570000Y-110610000D02*
X88570000Y-111110000D01*
X88570000Y-111110000D02*
X88220000Y-111110000D01*
X88820000Y-109710000D02*
X88320000Y-109710000D01*
X88820000Y-110610000D02*
X88320000Y-110610000D01*
X88920000Y-108810000D02*
X88220000Y-108810000D01*
X88920000Y-111510000D02*
X88220000Y-111510000D01*
X90270000Y-110260000D02*
X90270000Y-110060000D01*
X90870000Y-110060000D02*
X90270000Y-110060000D01*
%TO.C,C12*%
X88370000Y-113635000D02*
X88370000Y-113035000D01*
X88770000Y-113635000D02*
X88770000Y-113035000D01*
%TO.C,C17*%
X76940000Y-100335000D02*
X76940000Y-100935000D01*
X77340000Y-100335000D02*
X77340000Y-100935000D01*
%TO.C,C11*%
X88370000Y-106685000D02*
X88370000Y-107285000D01*
X88770000Y-106685000D02*
X88770000Y-107285000D01*
%TO.C,U1*%
X90807612Y-103535534D02*
X90454058Y-103889087D01*
X92575379Y-105303301D02*
X92045049Y-105833631D01*
X94343146Y-107071068D02*
X93989592Y-107424621D01*
X96110913Y-108838835D02*
X95580583Y-109369165D01*
X97878680Y-110606602D02*
X97525126Y-110960155D01*
X89959084Y-100000000D02*
X90560124Y-99398959D01*
X90418703Y-100459619D02*
X89428754Y-101449569D01*
X90418703Y-100459619D02*
X89959084Y-100000000D01*
X100017678Y-110023239D02*
X99416637Y-109422198D01*
X100601041Y-109439876D02*
X100017678Y-110023239D01*
X89393398Y-97878680D02*
X89039845Y-97525126D01*
X103535534Y-109192388D02*
X103889087Y-109545942D01*
X91161165Y-96110913D02*
X90630835Y-95580583D01*
X105303301Y-107424621D02*
X105833631Y-107954951D01*
X92928932Y-94343146D02*
X92575379Y-93989592D01*
X107071068Y-105656854D02*
X107424621Y-106010408D01*
X94696699Y-92575379D02*
X94166369Y-92045049D01*
X108838835Y-103889087D02*
X109369165Y-104419417D01*
X96464466Y-90807612D02*
X96110913Y-90454058D01*
X110606602Y-102121320D02*
X110960155Y-102474874D01*
X99398959Y-90560124D02*
X100000000Y-89959084D01*
X100000000Y-89959084D02*
X100601041Y-90560124D01*
X109439876Y-99398959D02*
X110040916Y-100000000D01*
X110040916Y-100000000D02*
X109439876Y-100601041D01*
X102121320Y-89393398D02*
X102474874Y-89039845D01*
X103889087Y-91161165D02*
X104419417Y-90630835D01*
X105656854Y-92928932D02*
X106010408Y-92575379D01*
X107424621Y-94696699D02*
X107954951Y-94166369D01*
X109192388Y-96464466D02*
X109545942Y-96110913D01*
X89466622Y-102298097D02*
G75*
G03*
X89466622Y-102298097I-250000J0D01*
G01*
%TO.C,C1*%
X100300000Y-113200000D02*
X100300000Y-112200000D01*
X99700000Y-113200000D02*
G75*
G03*
X99700000Y-112200000I-400000J500000D01*
G01*
%TO.C,J3*%
X70155000Y-83490000D02*
X72060000Y-83490000D01*
X72060000Y-83490000D02*
X72060000Y-81585000D01*
X74700000Y-81585000D02*
X74700000Y-118415000D01*
%TO.C,J1*%
X117780000Y-81585000D02*
X117780000Y-82280000D01*
X115240000Y-81585000D02*
X115240000Y-83590000D01*
X82120000Y-81585000D02*
X82120000Y-83590000D01*
X115240000Y-83590000D02*
X82120000Y-83590000D01*
%TO.C,C16*%
X121090000Y-84460000D02*
G75*
G03*
X122090000Y-84460000I500000J400000D01*
G01*
X121090000Y-85060000D02*
X122090000Y-85060000D01*
%TO.C,J6*%
X119060000Y-115900000D02*
X106360000Y-115900000D01*
X119060000Y-110800000D02*
X119060000Y-115900000D01*
X107760000Y-110800000D02*
X119060000Y-110800000D01*
X106360000Y-112200000D02*
X107760000Y-110800000D01*
X106360000Y-112200000D02*
X106360000Y-115900000D01*
%TO.C,J4*%
X92380000Y-116410000D02*
X117880000Y-116410000D01*
X117880000Y-118415000D02*
X117880000Y-116410000D01*
X92380000Y-118415000D02*
X92380000Y-116410000D01*
X89740000Y-118415000D02*
X89740000Y-117780000D01*
%TO.C,SW1*%
X82400000Y-107610000D02*
X79500000Y-107610000D01*
X79500000Y-107610000D02*
X79500000Y-108810000D01*
X79500000Y-108810000D02*
X82400000Y-108810000D01*
X82400000Y-108810000D02*
X82400000Y-107610000D01*
X77975000Y-116610000D02*
X83925000Y-116610000D01*
X77975000Y-116610000D02*
X77975000Y-112610000D01*
X83925000Y-116610000D02*
X83925000Y-112610000D01*
X77975000Y-105710000D02*
X77975000Y-103710000D01*
X83925000Y-105710000D02*
X83925000Y-103710000D01*
X83925000Y-103710000D02*
X77975000Y-103710000D01*
%TO.C,R1*%
X77475000Y-86130000D02*
X77675000Y-85930000D01*
X77875000Y-86130000D02*
X77675000Y-85930000D01*
X77875000Y-86130000D02*
X78075000Y-85930000D01*
%TO.C,J2*%
X125300000Y-82220000D02*
X125300000Y-81585000D01*
X125300000Y-83490000D02*
X125300000Y-118415000D01*
X125300000Y-83490000D02*
X127940000Y-83490000D01*
X127940000Y-83490000D02*
X127940000Y-81585000D01*
%TD*%
M02*
