%TF.GenerationSoftware,KiCad,Pcbnew,7.0.5*%
%TF.CreationDate,2023-08-21T09:28:54+09:00*%
%TF.ProjectId,STM32G4 MAZE,53544d33-3247-4342-904d-415a452e6b69,rev?*%
%TF.SameCoordinates,Original*%
%TF.FileFunction,Soldermask,Top*%
%TF.FilePolarity,Negative*%
%FSLAX46Y46*%
G04 Gerber Fmt 4.6, Leading zero omitted, Abs format (unit mm)*
G04 Created by KiCad (PCBNEW 7.0.5) date 2023-08-21 09:28:54*
%MOMM*%
%LPD*%
G01*
G04 APERTURE LIST*
G04 Aperture macros list*
%AMRoundRect*
0 Rectangle with rounded corners*
0 $1 Rounding radius*
0 $2 $3 $4 $5 $6 $7 $8 $9 X,Y pos of 4 corners*
0 Add a 4 corners polygon primitive as box body*
4,1,4,$2,$3,$4,$5,$6,$7,$8,$9,$2,$3,0*
0 Add four circle primitives for the rounded corners*
1,1,$1+$1,$2,$3*
1,1,$1+$1,$4,$5*
1,1,$1+$1,$6,$7*
1,1,$1+$1,$8,$9*
0 Add four rect primitives between the rounded corners*
20,1,$1+$1,$2,$3,$4,$5,0*
20,1,$1+$1,$4,$5,$6,$7,0*
20,1,$1+$1,$6,$7,$8,$9,0*
20,1,$1+$1,$8,$9,$2,$3,0*%
%AMFreePoly0*
4,1,19,0.500000,-0.750000,0.000000,-0.750000,0.000000,-0.744911,-0.071157,-0.744911,-0.207708,-0.704816,-0.327430,-0.627875,-0.420627,-0.520320,-0.479746,-0.390866,-0.500000,-0.250000,-0.500000,0.250000,-0.479746,0.390866,-0.420627,0.520320,-0.327430,0.627875,-0.207708,0.704816,-0.071157,0.744911,0.000000,0.744911,0.000000,0.750000,0.500000,0.750000,0.500000,-0.750000,0.500000,-0.750000,
$1*%
%AMFreePoly1*
4,1,19,0.000000,0.744911,0.071157,0.744911,0.207708,0.704816,0.327430,0.627875,0.420627,0.520320,0.479746,0.390866,0.500000,0.250000,0.500000,-0.250000,0.479746,-0.390866,0.420627,-0.520320,0.327430,-0.627875,0.207708,-0.704816,0.071157,-0.744911,0.000000,-0.744911,0.000000,-0.750000,-0.500000,-0.750000,-0.500000,0.750000,0.000000,0.750000,0.000000,0.744911,0.000000,0.744911,
$1*%
%AMFreePoly2*
4,1,19,0.550000,-0.750000,0.000000,-0.750000,0.000000,-0.744911,-0.071157,-0.744911,-0.207708,-0.704816,-0.327430,-0.627875,-0.420627,-0.520320,-0.479746,-0.390866,-0.500000,-0.250000,-0.500000,0.250000,-0.479746,0.390866,-0.420627,0.520320,-0.327430,0.627875,-0.207708,0.704816,-0.071157,0.744911,0.000000,0.744911,0.000000,0.750000,0.550000,0.750000,0.550000,-0.750000,0.550000,-0.750000,
$1*%
%AMFreePoly3*
4,1,19,0.000000,0.744911,0.071157,0.744911,0.207708,0.704816,0.327430,0.627875,0.420627,0.520320,0.479746,0.390866,0.500000,0.250000,0.500000,-0.250000,0.479746,-0.390866,0.420627,-0.520320,0.327430,-0.627875,0.207708,-0.704816,0.071157,-0.744911,0.000000,-0.744911,0.000000,-0.750000,-0.550000,-0.750000,-0.550000,0.750000,0.000000,0.750000,0.000000,0.744911,0.000000,0.744911,
$1*%
G04 Aperture macros list end*
%ADD10RoundRect,0.200000X-0.600000X0.600000X-0.600000X-0.600000X0.600000X-0.600000X0.600000X0.600000X0*%
%ADD11O,1.600000X1.600000*%
%ADD12RoundRect,0.200000X0.800000X0.050000X-0.800000X0.050000X-0.800000X-0.050000X0.800000X-0.050000X0*%
%ADD13RoundRect,0.045000X-0.405000X-0.405000X0.405000X-0.405000X0.405000X0.405000X-0.405000X0.405000X0*%
%ADD14C,0.900000*%
%ADD15RoundRect,0.200000X-0.800000X-0.050000X0.800000X-0.050000X0.800000X0.050000X-0.800000X0.050000X0*%
%ADD16RoundRect,0.200000X-0.800000X-0.550000X0.800000X-0.550000X0.800000X0.550000X-0.800000X0.550000X0*%
%ADD17RoundRect,0.200000X-0.800000X-1.700000X0.800000X-1.700000X0.800000X1.700000X-0.800000X1.700000X0*%
%ADD18FreePoly0,180.000000*%
%ADD19FreePoly1,180.000000*%
%ADD20FreePoly2,0.000000*%
%ADD21R,1.000000X1.500000*%
%ADD22FreePoly3,0.000000*%
%ADD23RoundRect,0.200000X-0.700000X0.650000X-0.700000X-0.650000X0.700000X-0.650000X0.700000X0.650000X0*%
%ADD24RoundRect,0.050000X0.400000X0.350000X-0.400000X0.350000X-0.400000X-0.350000X0.400000X-0.350000X0*%
%ADD25RoundRect,0.050000X-0.400000X-0.350000X0.400000X-0.350000X0.400000X0.350000X-0.400000X0.350000X0*%
%ADD26RoundRect,0.050000X-0.318198X-0.459619X0.459619X0.318198X0.318198X0.459619X-0.459619X-0.318198X0*%
%ADD27RoundRect,0.050000X-0.459619X0.318198X0.318198X-0.459619X0.459619X-0.318198X-0.318198X0.459619X0*%
%ADD28RoundRect,0.093750X0.806250X0.656250X-0.806250X0.656250X-0.806250X-0.656250X0.806250X-0.656250X0*%
%ADD29RoundRect,0.200000X-0.600000X-0.600000X0.600000X-0.600000X0.600000X0.600000X-0.600000X0.600000X0*%
%ADD30RoundRect,0.093750X0.656250X-0.806250X0.656250X0.806250X-0.656250X0.806250X-0.656250X-0.806250X0*%
%ADD31RoundRect,0.200000X0.600000X0.600000X-0.600000X0.600000X-0.600000X-0.600000X0.600000X-0.600000X0*%
%ADD32RoundRect,0.200000X0.600000X-0.600000X0.600000X0.600000X-0.600000X0.600000X-0.600000X-0.600000X0*%
%ADD33C,1.700000*%
%ADD34RoundRect,0.200000X-0.650000X0.650000X-0.650000X-0.650000X0.650000X-0.650000X0.650000X0.650000X0*%
%ADD35RoundRect,0.050000X-0.350000X0.400000X-0.350000X-0.400000X0.350000X-0.400000X0.350000X0.400000X0*%
G04 APERTURE END LIST*
D10*
%TO.C,J7*%
X103810000Y-87300000D03*
D11*
X101270000Y-87300000D03*
X98730000Y-87300000D03*
X96190000Y-87300000D03*
X93650000Y-87300000D03*
X91110000Y-87300000D03*
%TD*%
D12*
%TO.C,J5*%
X81585000Y-85395000D03*
D13*
X83490000Y-85395000D03*
D14*
X84760000Y-85395000D03*
D15*
X86665000Y-85395000D03*
D12*
X81585000Y-86665000D03*
D14*
X83490000Y-86665000D03*
X84760000Y-86665000D03*
D15*
X86665000Y-86665000D03*
D12*
X81585000Y-87935000D03*
D14*
X83490000Y-87935000D03*
X84760000Y-87935000D03*
D15*
X86665000Y-87935000D03*
D12*
X81585000Y-89205000D03*
D14*
X83490000Y-89205000D03*
X84760000Y-89205000D03*
D15*
X86665000Y-89205000D03*
D12*
X81585000Y-90475000D03*
D14*
X83490000Y-90475000D03*
X84760000Y-90475000D03*
D15*
X86665000Y-90475000D03*
%TD*%
D16*
%TO.C,U2*%
X112090000Y-85635000D03*
X112090000Y-87935000D03*
D17*
X118390000Y-87935000D03*
D16*
X112090000Y-90235000D03*
%TD*%
D18*
%TO.C,JP1*%
X115255000Y-100635000D03*
D19*
X113955000Y-100635000D03*
%TD*%
D20*
%TO.C,JP2*%
X80285000Y-101270000D03*
D21*
X81585000Y-101270000D03*
D22*
X82885000Y-101270000D03*
%TD*%
%TO.C,JP3*%
X79710000Y-82220000D03*
D21*
X78410000Y-82220000D03*
D20*
X77110000Y-82220000D03*
%TD*%
D23*
%TO.C,Y1*%
X90070000Y-111360000D03*
X87070000Y-111360000D03*
X87070000Y-108960000D03*
X90070000Y-108960000D03*
%TD*%
D24*
%TO.C,C12*%
X87620000Y-113335000D03*
X89520000Y-113335000D03*
%TD*%
D25*
%TO.C,C17*%
X76190000Y-100635000D03*
X78090000Y-100635000D03*
%TD*%
%TO.C,C11*%
X87620000Y-106985000D03*
X89520000Y-106985000D03*
%TD*%
D26*
%TO.C,U1*%
X90100505Y-101414214D03*
X90454058Y-101767767D03*
X90807612Y-102121320D03*
X91161165Y-102474874D03*
X91514719Y-102828427D03*
X91868272Y-103181981D03*
X92221825Y-103535534D03*
X92575379Y-103889087D03*
X92928932Y-104242641D03*
X93282486Y-104596194D03*
X93636039Y-104949747D03*
X93989592Y-105303301D03*
X94343146Y-105656854D03*
X94696699Y-106010408D03*
X95050253Y-106363961D03*
X95403806Y-106717514D03*
X95757359Y-107071068D03*
X96110913Y-107424621D03*
X96464466Y-107778175D03*
X96818019Y-108131728D03*
X97171573Y-108485281D03*
X97525126Y-108838835D03*
X97878680Y-109192388D03*
X98232233Y-109545942D03*
X98585786Y-109899495D03*
D27*
X101414214Y-109899495D03*
X101767767Y-109545942D03*
X102121320Y-109192388D03*
X102474874Y-108838835D03*
X102828427Y-108485281D03*
X103181981Y-108131728D03*
X103535534Y-107778175D03*
X103889087Y-107424621D03*
X104242641Y-107071068D03*
X104596194Y-106717514D03*
X104949747Y-106363961D03*
X105303301Y-106010408D03*
X105656854Y-105656854D03*
X106010408Y-105303301D03*
X106363961Y-104949747D03*
X106717514Y-104596194D03*
X107071068Y-104242641D03*
X107424621Y-103889087D03*
X107778175Y-103535534D03*
X108131728Y-103181981D03*
X108485281Y-102828427D03*
X108838835Y-102474874D03*
X109192388Y-102121320D03*
X109545942Y-101767767D03*
X109899495Y-101414214D03*
D26*
X109899495Y-98585786D03*
X109545942Y-98232233D03*
X109192388Y-97878680D03*
X108838835Y-97525126D03*
X108485281Y-97171573D03*
X108131728Y-96818019D03*
X107778175Y-96464466D03*
X107424621Y-96110913D03*
X107071068Y-95757359D03*
X106717514Y-95403806D03*
X106363961Y-95050253D03*
X106010408Y-94696699D03*
X105656854Y-94343146D03*
X105303301Y-93989592D03*
X104949747Y-93636039D03*
X104596194Y-93282486D03*
X104242641Y-92928932D03*
X103889087Y-92575379D03*
X103535534Y-92221825D03*
X103181981Y-91868272D03*
X102828427Y-91514719D03*
X102474874Y-91161165D03*
X102121320Y-90807612D03*
X101767767Y-90454058D03*
X101414214Y-90100505D03*
D27*
X98585786Y-90100505D03*
X98232233Y-90454058D03*
X97878680Y-90807612D03*
X97525126Y-91161165D03*
X97171573Y-91514719D03*
X96818019Y-91868272D03*
X96464466Y-92221825D03*
X96110913Y-92575379D03*
X95757359Y-92928932D03*
X95403806Y-93282486D03*
X95050253Y-93636039D03*
X94696699Y-93989592D03*
X94343146Y-94343146D03*
X93989592Y-94696699D03*
X93636039Y-95050253D03*
X93282486Y-95403806D03*
X92928932Y-95757359D03*
X92575379Y-96110913D03*
X92221825Y-96464466D03*
X91868272Y-96818019D03*
X91514719Y-97171573D03*
X91161165Y-97525126D03*
X90807612Y-97878680D03*
X90454058Y-98232233D03*
X90100505Y-98585786D03*
%TD*%
D28*
%TO.C,C1*%
X101500000Y-112700000D03*
X98500000Y-112700000D03*
%TD*%
D29*
%TO.C,J3*%
X70790000Y-82220000D03*
D11*
X73330000Y-82220000D03*
X70790000Y-84760000D03*
X73330000Y-84760000D03*
X70790000Y-87300000D03*
X73330000Y-87300000D03*
X70790000Y-89840000D03*
X73330000Y-89840000D03*
X70790000Y-92380000D03*
X73330000Y-92380000D03*
X70790000Y-94920000D03*
X73330000Y-94920000D03*
X70790000Y-97460000D03*
X73330000Y-97460000D03*
X70790000Y-100000000D03*
X73330000Y-100000000D03*
X70790000Y-102540000D03*
X73330000Y-102540000D03*
X70790000Y-105080000D03*
X73330000Y-105080000D03*
X70790000Y-107620000D03*
X73330000Y-107620000D03*
X70790000Y-110160000D03*
X73330000Y-110160000D03*
X70790000Y-112700000D03*
X73330000Y-112700000D03*
X70790000Y-115240000D03*
X73330000Y-115240000D03*
X70790000Y-117780000D03*
X73330000Y-117780000D03*
%TD*%
D10*
%TO.C,J1*%
X116510000Y-82220000D03*
D11*
X113970000Y-82220000D03*
X111430000Y-82220000D03*
X108890000Y-82220000D03*
X106350000Y-82220000D03*
X103810000Y-82220000D03*
X101270000Y-82220000D03*
X98730000Y-82220000D03*
X96190000Y-82220000D03*
X93650000Y-82220000D03*
X91110000Y-82220000D03*
X88570000Y-82220000D03*
X86030000Y-82220000D03*
X83490000Y-82220000D03*
%TD*%
D30*
%TO.C,C16*%
X121590000Y-83260000D03*
X121590000Y-86260000D03*
%TD*%
D31*
%TO.C,J6*%
X116510000Y-112700000D03*
D11*
X114010000Y-112700000D03*
X111510000Y-112700000D03*
X109010000Y-112700000D03*
%TD*%
%TO.C,J4*%
X116510000Y-117780000D03*
X113970000Y-117780000D03*
X111430000Y-117780000D03*
X108890000Y-117780000D03*
X106350000Y-117780000D03*
X103810000Y-117780000D03*
X101270000Y-117780000D03*
X98730000Y-117780000D03*
X96190000Y-117780000D03*
X93650000Y-117780000D03*
D32*
X91110000Y-117780000D03*
%TD*%
D33*
%TO.C,SW1*%
X80950000Y-110160000D03*
D34*
X80950000Y-105080000D03*
D33*
X80950000Y-115240000D03*
%TD*%
D35*
%TO.C,R1*%
X77775000Y-86980000D03*
X77775000Y-85080000D03*
%TD*%
D29*
%TO.C,J2*%
X126670000Y-82220000D03*
D11*
X129210000Y-82220000D03*
X126670000Y-84760000D03*
X129210000Y-84760000D03*
X126670000Y-87300000D03*
X129210000Y-87300000D03*
X126670000Y-89840000D03*
X129210000Y-89840000D03*
X126670000Y-92380000D03*
X129210000Y-92380000D03*
X126670000Y-94920000D03*
X129210000Y-94920000D03*
X126670000Y-97460000D03*
X129210000Y-97460000D03*
X126670000Y-100000000D03*
X129210000Y-100000000D03*
X126670000Y-102540000D03*
X129210000Y-102540000D03*
X126670000Y-105080000D03*
X129210000Y-105080000D03*
X126670000Y-107620000D03*
X129210000Y-107620000D03*
X126670000Y-110160000D03*
X129210000Y-110160000D03*
X126670000Y-112700000D03*
X129210000Y-112700000D03*
X126670000Y-115240000D03*
X129210000Y-115240000D03*
X126670000Y-117780000D03*
X129210000Y-117780000D03*
%TD*%
M02*
